<?xml version="1.0" encoding="utf-8"?>
<!-- Generator: Adobe Illustrator 16.0.0, SVG Export Plug-In . SVG Version: 6.00 Build 0)  -->
<!DOCTYPE svg PUBLIC "-//W3C//DTD SVG 1.1//EN" "http://www.w3.org/Graphics/SVG/1.1/DTD/svg11.dtd">
<svg version="1.1" id="레이어_1" xmlns="http://www.w3.org/2000/svg" xmlns:xlink="http://www.w3.org/1999/xlink" x="0px"
	 y="0px" width="630px" height="180px" viewBox="0 0 630 180" enable-background="new 0 0 630 180" xml:space="preserve">
<g>
	<path fill="#6FB92C" d="M143.651,173.519H2.183v-96.86h141.469V173.519z M5.106,170.593H140.73v-91.01H5.106V170.593z"/>
	<rect x="3.646" y="78.12" fill="#FFFFFF" width="138.545" height="93.934"/>
	<rect x="3.636" y="77.237" fill="#007A66" width="138.547" height="14.785"/>
	<path fill="#007A66" d="M143.697,93.536H2.126V75.725h141.571V93.536z M5.149,90.51h135.524V78.749H5.149V90.51z"/>
	<rect x="58.06" y="83.286" fill="#FFFFFF" width="0.437" height="4.693"/>
	<path fill="#FFFFFF" d="M61.822,87.972v-2.135c0-0.309-0.081-0.541-0.244-0.703c-0.162-0.16-0.384-0.241-0.666-0.241
		c-0.318,0-0.581,0.104-0.793,0.315c-0.213,0.209-0.318,0.438-0.318,0.688v2.075h-0.457v-3.393h0.457v0.455
		c0.146-0.176,0.331-0.319,0.548-0.439c0.219-0.117,0.486-0.164,0.804-0.145c0.356,0.018,0.634,0.152,0.833,0.402
		c0.199,0.25,0.299,0.523,0.299,0.824v2.295H61.822z"/>
	<path fill="#FFFFFF" d="M63.535,84.927v3.072h-0.454v-3.072h-0.429V84.56h0.429v-0.496c0-0.135,0.006-0.244,0.02-0.328
		c0.012-0.086,0.044-0.162,0.092-0.229c0.045-0.062,0.107-0.115,0.185-0.16c0.079-0.045,0.171-0.069,0.272-0.073h0.359v0.374
		c-0.043,0-0.104-0.002-0.183-0.006c-0.076-0.006-0.144,0.022-0.197,0.081c-0.049,0.043-0.077,0.099-0.084,0.163
		s-0.01,0.141-0.01,0.231v0.442h0.496v0.367H63.535z"/>
	<path fill="#FFFFFF" d="M67.073,84.974c0.301,0.348,0.453,0.784,0.453,1.307c0,0.512-0.152,0.945-0.453,1.299
		c-0.3,0.357-0.71,0.534-1.227,0.534c-0.514,0-0.919-0.177-1.218-0.534c-0.299-0.354-0.45-0.787-0.45-1.299
		c0-0.522,0.151-0.959,0.45-1.307c0.299-0.349,0.704-0.523,1.218-0.523C66.363,84.45,66.772,84.625,67.073,84.974 M66.708,87.3
		c0.219-0.274,0.328-0.615,0.328-1.02c0-0.413-0.108-0.752-0.328-1.021c-0.217-0.271-0.507-0.406-0.863-0.406
		c-0.353,0-0.638,0.135-0.854,0.406c-0.217,0.27-0.324,0.608-0.324,1.021c0,0.404,0.107,0.745,0.324,1.02
		c0.216,0.273,0.5,0.411,0.854,0.411C66.202,87.711,66.491,87.573,66.708,87.3"/>
	<path fill="#FFFFFF" d="M69.829,84.912c-0.1,0-0.208,0.009-0.333,0.023c-0.121,0.019-0.234,0.053-0.337,0.112
		c-0.2,0.111-0.351,0.256-0.452,0.434c-0.099,0.18-0.15,0.415-0.15,0.71v1.78h-0.456v-3.393h0.456v0.529l0.041,0.012
		c0.067-0.115,0.149-0.217,0.249-0.304c0.097-0.087,0.209-0.159,0.333-0.219c0.109-0.054,0.228-0.09,0.355-0.108
		c0.125-0.021,0.222-0.031,0.295-0.031V84.912z"/>
	<path fill="#FFFFFF" d="M74.353,87.972v-2.195c0-0.28-0.052-0.506-0.155-0.673c-0.104-0.168-0.285-0.247-0.548-0.237
		c-0.259,0.006-0.469,0.096-0.629,0.277c-0.162,0.182-0.241,0.414-0.241,0.699v2.129h-0.45l-0.006-2.195
		c0-0.28-0.052-0.506-0.158-0.673c-0.104-0.168-0.288-0.247-0.552-0.237c-0.264,0.006-0.473,0.099-0.632,0.285
		c-0.158,0.186-0.238,0.416-0.238,0.691v2.129h-0.454v-3.393h0.454v0.416c0.116-0.143,0.262-0.273,0.438-0.39
		c0.176-0.115,0.394-0.167,0.652-0.155c0.191,0.012,0.358,0.07,0.501,0.187c0.145,0.112,0.25,0.255,0.323,0.424
		c0.066-0.099,0.198-0.231,0.39-0.396c0.195-0.164,0.467-0.234,0.813-0.215c0.335,0.018,0.576,0.149,0.724,0.393
		c0.147,0.244,0.221,0.507,0.221,0.793v2.336H74.353z"/>
	<path fill="#FFFFFF" d="M78.069,87.992c-0.027-0.05-0.05-0.125-0.071-0.226c-0.021-0.1-0.032-0.205-0.037-0.316
		c-0.139,0.153-0.329,0.293-0.573,0.429c-0.242,0.133-0.504,0.208-0.786,0.22c-0.354,0.023-0.654-0.039-0.908-0.183
		c-0.252-0.146-0.394-0.366-0.426-0.661c-0.029-0.299,0.036-0.535,0.196-0.708c0.16-0.174,0.364-0.297,0.609-0.368
		c0.196-0.063,0.415-0.102,0.656-0.119c0.242-0.014,0.465-0.039,0.676-0.076c0.109-0.021,0.233-0.059,0.363-0.113
		c0.127-0.053,0.193-0.156,0.193-0.309c0-0.183-0.083-0.349-0.249-0.501c-0.165-0.151-0.418-0.228-0.762-0.228
		c-0.328,0-0.583,0.068-0.765,0.205c-0.187,0.135-0.274,0.312-0.267,0.529h-0.44c-0.031-0.337,0.1-0.611,0.398-0.818
		c0.296-0.207,0.654-0.311,1.075-0.311c0.402,0,0.75,0.1,1.042,0.297c0.296,0.199,0.444,0.48,0.444,0.842v1.859
		c0,0.15,0.015,0.28,0.044,0.385c0.028,0.105,0.045,0.16,0.048,0.171H78.069z M77.961,86.119c-0.055,0.04-0.117,0.075-0.19,0.106
		c-0.075,0.031-0.147,0.055-0.218,0.066c-0.144,0.031-0.342,0.061-0.596,0.088s-0.436,0.053-0.542,0.08
		c-0.233,0.062-0.407,0.154-0.522,0.273c-0.118,0.12-0.171,0.269-0.162,0.443c0.015,0.205,0.111,0.352,0.292,0.439
		c0.18,0.09,0.396,0.125,0.64,0.108c0.325-0.026,0.624-0.141,0.894-0.338c0.271-0.199,0.405-0.403,0.405-0.612V86.119z"/>
	<path fill="#FFFFFF" d="M79.675,84.927v2.209c0,0.089,0,0.164,0,0.225c0.006,0.061,0.035,0.113,0.091,0.164
		c0.051,0.043,0.112,0.071,0.188,0.079c0.077,0.009,0.139,0.015,0.188,0.015v0.367h-0.361c-0.097,0-0.186-0.025-0.261-0.076
		c-0.076-0.051-0.138-0.111-0.189-0.176c-0.048-0.07-0.081-0.143-0.093-0.22c-0.015-0.078-0.019-0.186-0.019-0.326v-2.261h-0.429
		V84.56h0.429v-1.061h0.456v1.061h0.494v0.367H79.675z"/>
	<path fill="#FFFFFF" d="M80.745,83.254h0.51v0.522h-0.51V83.254z M80.773,84.504h0.454v3.476h-0.454V84.504z"/>
	<path fill="#FFFFFF" d="M84.691,84.974c0.302,0.348,0.453,0.784,0.453,1.307c0,0.512-0.151,0.945-0.453,1.299
		c-0.301,0.357-0.711,0.534-1.228,0.534c-0.515,0-0.92-0.177-1.219-0.534c-0.299-0.354-0.448-0.787-0.448-1.299
		c0-0.522,0.148-0.959,0.448-1.307c0.299-0.349,0.705-0.523,1.219-0.523C83.98,84.45,84.39,84.625,84.691,84.974 M84.327,87.3
		c0.217-0.274,0.327-0.615,0.327-1.02c0-0.413-0.11-0.752-0.327-1.021c-0.218-0.271-0.507-0.406-0.863-0.406
		c-0.353,0-0.637,0.135-0.855,0.406c-0.215,0.27-0.325,0.608-0.325,1.021c0,0.404,0.109,0.745,0.325,1.02
		c0.218,0.273,0.502,0.411,0.855,0.411C83.82,87.711,84.109,87.573,84.327,87.3"/>
	<path fill="#FFFFFF" d="M88.194,87.972v-2.135c0-0.309-0.08-0.541-0.245-0.703c-0.162-0.16-0.383-0.241-0.663-0.241
		c-0.319,0-0.583,0.104-0.796,0.315c-0.212,0.209-0.318,0.438-0.318,0.688v2.075h-0.454v-3.393h0.454v0.455
		c0.149-0.176,0.331-0.319,0.551-0.439c0.218-0.117,0.485-0.164,0.802-0.145c0.358,0.018,0.635,0.152,0.834,0.402
		c0.197,0.25,0.298,0.523,0.298,0.824v2.295H88.194z"/>
	<g>
		<path fill="#6FB92C" d="M185.683,89.457v84.066h-22.941V45.084h22.941l43.618,84.822V45.084h22.488v128.439h-22.488
			L185.683,89.457z"/>
		<path fill="#6FB92C" d="M308.084,77.534c5.533,0,10.49,0.831,14.867,2.491s8.098,4,11.168,7.018
			c3.068,3.019,5.408,6.692,7.018,11.018c1.609,4.327,2.416,9.156,2.416,14.488v25.809c0,5.334-0.807,10.164-2.416,14.49
			c-1.609,4.324-3.949,8.021-7.018,11.092c-3.07,3.068-6.791,5.434-11.168,7.094s-9.334,2.49-14.867,2.49h-7.697
			c-5.434,0-10.338-0.83-14.715-2.49s-8.101-4.025-11.169-7.094c-3.07-3.07-5.41-6.768-7.018-11.092
			c-1.61-4.326-2.415-9.156-2.415-14.49v-25.809c0-5.332,0.804-10.161,2.415-14.488c1.608-4.326,3.948-8,7.018-11.018
			c3.068-3.019,6.792-5.358,11.169-7.018s9.282-2.491,14.715-2.491H308.084z M300.387,99.117c-3.924,0-7.221,1.309-9.886,3.924
			c-2.667,2.617-4,5.987-4,10.111v24.602c0,4.127,1.333,7.496,4,10.113c2.665,2.617,5.961,3.924,9.886,3.924h7.697
			c4.023,0,7.344-1.307,9.961-3.924c2.615-2.617,3.924-5.986,3.924-10.113v-24.602c0-4.124-1.309-7.494-3.924-10.111
			c-2.617-2.615-5.938-3.924-9.961-3.924H300.387z"/>
		<path fill="#DFD900" d="M352.756,77.534h17.81V45.084h22.187v32.449h17.81v21.583h-17.81v74.406h-22.187V99.117h-17.81V77.534z"/>
		<path fill="#DFD900" d="M444.065,67.12h-22.187V45.084h22.187V67.12z M444.065,173.523h-22.187v-95.99h22.187V173.523z"/>
		<path fill="#007A66" d="M507.604,149.678c2.113-1.408,3.521-3.42,4.227-6.037h22.337c-1.108,9.154-4.604,16.426-10.489,21.809
			c-5.887,5.381-13.81,8.074-23.771,8.074h-7.697c-5.434,0-10.338-0.83-14.715-2.49s-8.101-4.025-11.169-7.094
			c-3.07-3.07-5.434-6.768-7.094-11.092c-1.66-4.326-2.49-9.156-2.49-14.49v-25.809c0-5.332,0.83-10.161,2.49-14.488
			c1.66-4.326,4.023-8,7.094-11.018c3.068-3.019,6.792-5.358,11.169-7.018s9.281-2.491,14.715-2.491h7.697
			c10.162,0,18.211,2.693,24.148,8.075c5.936,5.384,9.357,12.806,10.264,22.263h-22.338c-0.705-2.717-2.089-4.854-4.15-6.415
			c-2.063-1.56-4.704-2.339-7.924-2.339h-7.697c-4.025,0-7.346,1.309-9.961,3.924c-2.618,2.617-3.924,5.987-3.924,10.111v24.602
			c0,4.127,1.306,7.496,3.924,10.113c2.615,2.617,5.936,3.924,9.961,3.924h7.697C502.926,151.791,505.492,151.086,507.604,149.678z"
			/>
		<path fill="#007A66" d="M543.524,111.644c0-4.627,0.88-9.004,2.642-13.131c1.759-4.124,4.099-7.747,7.018-10.867
			c2.917-3.118,6.237-5.584,9.962-7.396c3.721-1.811,7.494-2.717,11.319-2.717h21.432c4.929,0,9.306,1.033,13.131,3.094
			c3.822,2.063,7.041,4.705,9.659,7.924c2.615,3.222,4.627,6.817,6.037,10.791c1.408,3.976,2.113,7.825,2.113,11.546v24.299h-61.126
			v5.133c0,4.527,1.283,7.723,3.849,9.584c2.565,1.859,5.909,2.791,10.036,2.791h43.921v21.131h-48.901
			c-4.226,0-8.226-0.83-11.998-2.49c-3.773-1.66-7.07-3.951-9.886-6.867c-2.818-2.92-5.057-6.391-6.717-10.414
			s-2.49-8.4-2.49-13.131V111.644z M566.013,117.379h38.939v-1.057c0-4.83-1.26-8.853-3.773-12.074
			c-2.517-3.219-5.886-4.83-10.112-4.83h-11.772c-2.014,0-3.825,0.453-5.433,1.359c-1.611,0.904-2.995,2.139-4.151,3.697
			c-1.157,1.561-2.063,3.372-2.716,5.434c-0.656,2.063-0.981,4.202-0.981,6.414V117.379z"/>
	</g>
	<g>
		<path fill="#007A66" d="M40.194,125.846c2.559,0,4.938,0.483,7.136,1.449c2.197,0.967,4.093,2.318,5.687,4.057
			s2.836,3.803,3.731,6.193c0.893,2.391,1.34,4.988,1.34,7.789c0,2.656-0.411,5.133-1.232,7.426
			c-0.822,2.293-1.981,4.273-3.477,5.939c-1.498,1.666-3.285,2.982-5.361,3.949c-2.077,0.965-4.372,1.449-6.882,1.449H13.027V152.65
			h24.849c1.207,0,2.366-0.145,3.478-0.434c1.11-0.291,2.064-0.736,2.861-1.342c0.797-0.604,1.437-1.363,1.92-2.281
			c0.482-0.916,0.724-2.004,0.724-3.26c0-2.365-0.773-4.203-2.318-5.506c-1.546-1.305-3.478-1.957-5.796-1.957h-7.317
			c-3.091,0-5.893-0.336-8.404-1.014c-2.512-0.676-4.649-1.738-6.411-3.188c-1.764-1.449-3.127-3.32-4.093-5.615
			c-0.967-2.293-1.449-5.034-1.449-8.222c0-2.27,0.386-4.456,1.159-6.557c0.772-2.101,1.858-3.948,3.26-5.542
			c1.4-1.594,3.09-2.873,5.071-3.84c1.98-0.965,4.177-1.449,6.592-1.449h25.501v12.027H31.863c-1.159,0-2.258,0.072-3.296,0.217
			c-1.04,0.145-1.945,0.424-2.717,0.833c-0.773,0.411-1.376,1.003-1.811,1.774c-0.435,0.773-0.652,1.812-0.652,3.115
			c0,1.547,0.507,2.838,1.521,3.876c1.014,1.04,2.415,1.558,4.202,1.558H40.194z"/>
		<path fill="#007A66" d="M115.609,142.871h0.58c1.594-6.811,3.211-13.523,4.854-20.141c1.642-6.616,3.308-13.377,4.999-20.285
			h11.012l-15.213,61.652h-11.809l-10.142-39.701l-9.78,39.701H78.3l-15.721-61.652h11.084l10.215,40.426h0.58l2.391-9.854
			c1.255-5.117,2.5-10.202,3.731-15.25c1.232-5.046,2.475-10.152,3.731-15.322h11.084L115.609,142.871z"/>
	</g>
	<g>
		<path fill="#393837" d="M116.956,34.992c-0.025-0.054-0.056-0.108-0.071-0.165c-0.009-0.026,0.018-0.062,0.027-0.094
			c0.038,0.058,0.082,0.112,0.108,0.173C117.027,34.923,116.98,34.963,116.956,34.992"/>
		<path fill="#393837" d="M103.535,70.948c-0.167-0.046-0.203-0.16-0.162-0.314C103.523,70.69,103.576,70.795,103.535,70.948"/>
		<path fill="#FFFFFF" d="M51.312,80.412c-0.469-0.562-0.397-0.772-0.902-1.56c-0.464-0.727-1.018-1.325-1.916-2.044
			c-0.326-0.26-0.785-0.594-1.376-0.925c0.041-0.681,0.111-1.405,0.222-2.17c0.196-1.336,0.481-2.534,0.792-3.579
			c0.001,0.535,0.001,1.071,0.001,1.607c9.675,0.093,19.419,0.147,29.229,0.162c10.863,0.018,21.641-0.017,32.342-0.095
			c-1.897-1.689-3.795-3.378-5.695-5.067c-2.049-0.873-4.101-1.746-6.149-2.618c-13.801-1.317-27.603-2.634-41.405-3.95
			c-1.663-1.113-4.308-2.498-8.032-2.835c-1.098-0.1-8.07-0.729-12.217,3.621c-2.396,2.514-6.324,6.76-5.133,15.578
			c0.102,0.744-0.079,1.494-0.5,2.117c-0.989,1.467-2.021,3.555-2.234,6.145c-0.136,1.623-0.283,3.514,1.015,4.916
			c1.279,1.385,3.038,1.462,3.767,1.428c0.269-0.01,0.492,0.039,0.645,0.042c0.451,0.085,0.9,0.166,1.353,0.251
			c0.006,0.008,0.012,0.014,0.014,0.016c1.063,1.121,2.948,1.375,2.946,1.383h-0.004c0.018,0,0.033,0.001,0.052,0.001
			c0.53,0.005,1.304,0.009,1.808-0.505c0.179-0.185,0.299-0.416,0.379-0.668c0.019,0.133,0.039,0.271,0.063,0.423
			c0.65,4.414,0.751,4.853,1.224,5.521c0.254,0.362,1.289,1.883,3.037,2.041c1.248,0.111,2.594-0.494,3.278-1.512
			c0.76-1.128,0.346-2.232,0.155-5.027c-0.076-1.102-0.013-1.364-0.078-1.861c-0.218-1.672-0.689-2.116-0.38-2.553
			c0.157-0.223,1.151-0.328,3.133-0.537c0.582-0.06,0.621-0.065,0.728-0.077c1.362-0.161,2.052-0.247,2.554-0.542
			c1.55-0.906,2.58-3.363,1.813-4.67C55.051,81.517,52.908,82.325,51.312,80.412"/>
		<path fill="#363737" d="M41.703,57.584c0.227-0.128,2.372-1.312,3.417-0.486c0.185,0.147,0.332,0.369,0.621,0.812
			c0.543,0.831,0.674,1.469,0.767,1.769c0.18,0.574,0.093,1.142-0.496,1.507c-0.563,0.35-1.135,0.302-1.589-0.121
			c-1.396-1.301-3.126-2.003-4.802-2.812C40.316,58.029,41.01,57.807,41.703,57.584"/>
		<path fill="#353434" d="M35.608,60.214c0.678,0.67,1.662,0.777,2.411,1.311c0.588,0.419,1.255,0.826,1.048,1.705
			c-0.214,0.9-0.944,0.985-1.698,0.926c-1.749-0.137-3.438,0.241-5.135,0.552c-0.076-0.456,0.058-0.847,0.367-1.186
			C33.604,62.42,34.606,61.317,35.608,60.214"/>
		<path fill="#353636" d="M30.691,68.363c0.921,0.412,1.817-0.173,2.732-0.062c0.721,0.086,1.512,0.089,1.728,0.979
			c0.215,0.868-0.365,1.319-1.045,1.672c-1.558,0.804-2.815,1.983-3.996,3.252C30.305,72.257,30.499,70.311,30.691,68.363"/>
		<path d="M32.638,91.845c-1.044,0-2.919-0.223-4.25-1.646c-1.529-1.634-1.352-3.764-1.21-5.477c0.208-2.52,1.201-5.012,2.88-7.225
			c-0.315-2.082-1.271-11.272,5.227-17.099c3.281-2.944,7.106-3.759,8.199-3.939c4.521-0.741,8.625,0.707,11.921,1.872
			c1.083,0.381,2.487,0.947,3.958,1.591c1.8,0.787,3.579,1.656,5.292,2.583c0.354,0.193,0.487,0.636,0.295,0.992
			c-0.191,0.354-0.636,0.486-0.991,0.295c-1.678-0.909-3.419-1.761-5.182-2.532c-1.439-0.629-2.809-1.181-3.857-1.552
			c-3.303-1.167-7.043-2.49-11.199-1.806c-0.993,0.163-4.475,0.906-7.46,3.585c-6.464,5.797-4.786,15.661-4.711,16.078
			c0.037,0.205-0.015,0.419-0.146,0.581c-1.129,1.43-2.527,3.752-2.769,6.697c-0.13,1.57-0.265,3.195,0.819,4.357
			c1.099,1.174,2.81,1.214,3.492,1.174c0.415-0.012,0.748,0.286,0.771,0.688c0.022,0.403-0.285,0.749-0.689,0.771
			C32.918,91.839,32.787,91.845,32.638,91.845"/>
		<path d="M37.633,93.552c-1.399,0-2.773-0.678-3.742-1.948c-1.385-1.819-1.661-4.505-0.687-6.68c0.165-0.37,0.598-0.532,0.966-0.37
			c0.369,0.165,0.534,0.598,0.369,0.967c-0.764,1.703-0.558,3.793,0.513,5.197c1.049,1.375,2.689,1.762,4.084,0.961
			c0.349-0.202,0.795-0.081,0.998,0.268c0.2,0.352,0.081,0.798-0.269,0.998C39.153,93.353,38.391,93.552,37.633,93.552"/>
		<path d="M44.508,100.373c-0.123,0-0.247-0.004-0.372-0.017c-1.356-0.121-2.552-0.902-3.548-2.318
			c-0.617-0.869-0.722-1.463-1.368-5.861c-0.262-1.755-0.313-2.158-0.353-2.856c-0.063-1.183-0.028-2.38,0.107-3.562
			c0.046-0.4,0.408-0.688,0.808-0.642c0.402,0.046,0.691,0.407,0.644,0.81c-0.125,1.099-0.158,2.213-0.098,3.315
			c0.034,0.634,0.087,1.022,0.338,2.721c0.636,4.331,0.73,4.688,1.095,5.206c0.76,1.078,1.595,1.649,2.506,1.731
			c1.004,0.091,2.076-0.397,2.606-1.19c0.399-0.592,0.363-1.162,0.202-2.719c-0.056-0.529-0.12-1.13-0.168-1.852
			c-0.112-1.621-0.112-3.268,0-4.895c0.026-0.379,0.337-0.676,0.715-0.682c1.103-0.02,2.223-0.096,3.331-0.227
			c1.275-0.152,1.906-0.234,2.27-0.449c0.592-0.344,1.154-1.043,1.465-1.822c0.291-0.73,0.325-1.438,0.087-1.844
			c-0.203-0.347-0.594-0.457-1.333-0.636c-0.945-0.229-2.12-0.513-3.126-1.722c-0.319-0.383-0.447-0.656-0.57-0.924
			c-0.091-0.195-0.185-0.396-0.386-0.709c-0.738-1.15-1.828-2.076-3.239-2.753c-0.309-0.147-0.473-0.485-0.399-0.817l1.26-5.701
			c0.089-0.394,0.478-0.642,0.871-0.555c0.396,0.086,0.644,0.477,0.557,0.872l-1.138,5.149c1.411,0.769,2.527,1.782,3.319,3.016
			c0.254,0.397,0.378,0.667,0.48,0.885c0.104,0.228,0.17,0.366,0.366,0.603c0.698,0.838,1.5,1.032,2.349,1.236
			c0.809,0.197,1.725,0.42,2.25,1.316c0.475,0.811,0.477,1.95,0.01,3.127c-0.434,1.082-1.213,2.031-2.085,2.543
			c-0.645,0.375-1.422,0.469-2.835,0.636c-0.93,0.11-1.87,0.185-2.8,0.22c-0.065,1.346-0.053,2.699,0.037,4.034
			c0.048,0.694,0.11,1.282,0.165,1.801c0.165,1.58,0.274,2.622-0.442,3.685C47.326,99.661,45.922,100.373,44.508,100.373"/>
		<path fill="#FFFFFF" d="M118.598,70.353c0.142,0.726,0.325,2.112-0.085,3.711c-0.223,0.864-0.84,3.284-2.594,3.771
			c-1.374,0.384-2.57-0.673-2.676-0.773c-0.702-0.655-0.951-1.47-1.356-2.784c-0.37-1.205-0.524-2.252-0.595-2.972l-0.54,1.714
			c-5.067,0.035-8.849-0.795-9.289-2.036c-0.245-0.688-0.162-1.329-0.162-1.329c0.105-0.802,0.569-1.393,0.843-1.742
			c0,0,0.313-0.401,0.667-0.695c0.861-0.721,3.486-0.603,6.525,0.675l0.215-0.273c0.946-0.811,2.541-1.977,4.778-2.774
			c0.637-0.227,2.753-0.934,5.581-0.857c1.742,0.045,3.829,0.108,5.766,1.331c0.54,0.343,0.897,0.667,1.949,1.286
			c1.844,1.086,2.16,0.924,2.652,1.462c1.199,1.312,0.758,3.86,0.083,5.359c-0.258,0.572-1.064,2.366-3.03,3.057
			c-1.369,0.479-2.583,0.172-3.072,0.02l0.997-6.055c0.08,0.688,0.365,3.822-1.701,5.959c-0.413,0.426-1.159,1.176-2.359,1.391
			c-1.921,0.345-3.435-0.965-3.675-1.179"/>
		<path d="M110.357,71.511c0.304,2.779,1.346,8.055,5.329,7.273c3.355-0.656,3.894-5.777,3.41-8.419
			c-0.168-0.923-1.577-0.532-1.409,0.389c0.312,1.71,0.118,5.669-1.931,6.476c-2.958,1.164-3.741-3.906-3.938-5.719
			C111.716,70.587,110.254,70.576,110.357,71.511"/>
		<path d="M116.797,77.341c1.987,1.73,4.758,1.953,6.75,0.1c1.859-1.727,2.497-4.322,2.234-6.787c-0.1-0.926-1.562-0.935-1.462,0
			c0.171,1.604-0.009,3.322-0.907,4.701c-1.322,2.029-3.695,2.594-5.582,0.951C117.124,75.692,116.087,76.722,116.797,77.341"/>
		<path d="M109.864,68.341c4.291-3.55,10.939-4.789,15.821-1.786c2.211,1.356,4.846,1.979,4.31,5.119
			c-0.478,2.798-2.671,5.174-5.746,4.328c-0.908-0.251-1.294,1.16-0.388,1.409c2.929,0.807,5.6-0.596,6.873-3.294
			c1.104-2.343,1.39-5.577-1.12-7.004c-1.509-0.857-3.034-1.918-4.593-2.662c-1.901-0.905-4.154-1.06-6.231-0.986
			c-3.719,0.133-7.099,1.473-9.961,3.843C108.105,67.908,109.145,68.938,109.864,68.341"/>
		<path d="M110.546,72.495c-1.818-0.004-3.654-0.055-5.449-0.371c-0.825-0.145-2.619-0.331-3.125-1.129
			c-0.903-1.428,0.899-3.172,2.17-3.277c1.621-0.134,3.318,0.5,4.794,1.087c0.874,0.347,1.254-1.066,0.388-1.409
			c-3.001-1.195-8.75-2.308-8.969,2.656c-0.193,4.328,7.533,3.9,10.19,3.904C111.485,73.958,111.486,72.497,110.546,72.495"/>
		<path d="M97.218,65.042c1.888,0.314,4.29,0.911,5.787,2.141c0.719,0.594,1.76-0.434,1.031-1.033
			c-1.736-1.429-4.234-2.152-6.427-2.517C96.687,63.481,96.292,64.888,97.218,65.042"/>
		<path fill="#FFFFFF" d="M118.389,14.361c-3.464-4.852-10.757-3.951-17.613-1.157c-5.035-3.295-11.124-5.499-17.81-6.131
			c-6.392-0.603-12.521,0.307-17.91,2.396c-6.227-4.055-13.253-6.332-17.577-2.201c-5.793,5.532-0.507,15.405,0.526,16.43
			c-1.264,2.678-2.294,6.733-2.583,9.787c-0.671,7.102,0.838,14.593,5.22,20.164c2.42,3.074,5.614,5.651,9.316,7.681
			c5.152,3.042,11.374,4.956,17.996,5.582c10.876,1.028,21.637-1.494,28.638-7.583c5.349-4.649,8.234-11.726,8.906-18.828
			c0.289-3.054,0.037-7.23-0.705-10.097C116.001,29.59,123.042,20.882,118.389,14.361"/>
		<path d="M115.143,33.132c-0.308-0.029-0.57-0.258-0.628-0.576c-0.001-0.014-0.248-1.37-0.905-3.439
			c-0.118-0.369,0.086-0.765,0.458-0.883c0.368-0.117,0.764,0.087,0.882,0.457c0.689,2.165,0.939,3.56,0.951,3.617
			c0.068,0.384-0.187,0.748-0.568,0.816C115.267,33.135,115.205,33.138,115.143,33.132"/>
		<path fill="#3E3A39" d="M117.513,14.182L117.513,14.182c-3.531-3.393-7.337-3.974-11.83-2.428
			c1.203,0.559,2.479,1.339,3.628,2.428C111.257,13.26,113.938,12.899,117.513,14.182"/>
		<path fill="#323333" d="M115.278,40.458c0.115-1.642,0.197-3.288,0.32-4.928c-0.147-0.034-0.302-0.069-0.461-0.104
			c-0.802-0.174-1.844-0.372-3.081-0.542c-1.417-0.166-3.345-0.114-4.961-0.012c-0.802,0.051-0.987,1.144-0.25,1.458
			c2.037,0.873,3.97,1.777,5.784,2.705C113.541,39.501,114.425,39.977,115.278,40.458"/>
		<path fill="#323333" d="M115.252,40.758c-0.044-0.004-0.083-0.018-0.121-0.038c-0.849-0.479-1.736-0.956-2.642-1.419
			c-1.798-0.92-3.734-1.829-5.763-2.696c-0.463-0.198-0.716-0.663-0.631-1.158c0.088-0.493,0.48-0.846,0.979-0.876
			c1.453-0.092,3.503-0.165,5.016,0.013l0.007,0.002c1.042,0.142,2.084,0.327,3.103,0.546c0.161,0.036,0.317,0.07,0.466,0.104
			c0.144,0.033,0.243,0.167,0.231,0.316c-0.068,0.907-0.124,1.833-0.179,2.727c-0.042,0.72-0.088,1.466-0.14,2.2
			c-0.006,0.102-0.064,0.194-0.157,0.244C115.369,40.751,115.308,40.762,115.252,40.758 M111.759,35.153
			c-1.441-0.135-3.301-0.068-4.646,0.018c-0.265,0.016-0.392,0.207-0.421,0.378c-0.029,0.174,0.026,0.397,0.271,0.503
			c2.04,0.872,3.993,1.784,5.799,2.712c0.765,0.392,1.52,0.793,2.248,1.197c0.038-0.575,0.074-1.155,0.109-1.718
			c0.047-0.813,0.1-1.65,0.159-2.478c-0.069-0.016-0.135-0.03-0.206-0.045c-1-0.216-2.028-0.397-3.052-0.538
			C111.933,35.171,111.845,35.162,111.759,35.153"/>
		<path fill="#323333" d="M112.848,51.511c0.292-0.586,0.559-1.185,0.795-1.796c0.303-0.8,0.542-1.619,0.742-2.451
			c0.062-0.265,0.115-0.531,0.168-0.799c-0.18-0.095-0.377-0.193-0.593-0.296c-1.208-0.583-1.736-0.721-3.337-1.333
			c-3.127-1.196-3.906-1.112-4.792-1.29c-0.785-0.158-1.246,0.85-0.615,1.344c1.118,0.877,1.993,1.578,4.888,4.102
			C111.285,50.021,112.184,50.857,112.848,51.511"/>
		<path fill="#323333" d="M112.819,51.812c-0.066-0.006-0.132-0.037-0.183-0.087c-0.733-0.72-1.649-1.563-2.729-2.504
			c-2.83-2.471-3.732-3.193-4.875-4.092c-0.398-0.31-0.522-0.824-0.31-1.28c0.206-0.455,0.676-0.695,1.17-0.596
			c0.174,0.035,0.343,0.059,0.538,0.087c0.756,0.106,1.789,0.254,4.302,1.216c0.462,0.178,0.835,0.316,1.164,0.436
			c0.799,0.295,1.327,0.488,2.196,0.908c0.212,0.102,0.415,0.203,0.598,0.299c0.12,0.063,0.183,0.195,0.158,0.326
			c-0.058,0.285-0.11,0.55-0.169,0.808c0,0.003,0,0.004,0,0.006c-0.227,0.931-0.475,1.744-0.757,2.486
			c-0.23,0.601-0.501,1.215-0.806,1.823c-0.043,0.087-0.124,0.146-0.22,0.163C112.87,51.812,112.846,51.813,112.819,51.812
			 M105.719,43.835c-0.233-0.022-0.384,0.118-0.45,0.265c-0.076,0.159-0.078,0.389,0.133,0.553c1.154,0.905,2.059,1.633,4.9,4.113
			c0.948,0.826,1.772,1.577,2.458,2.238c0.221-0.469,0.424-0.937,0.599-1.397c0.274-0.718,0.515-1.505,0.734-2.41
			c0.042-0.184,0.08-0.37,0.121-0.568c-0.121-0.061-0.25-0.124-0.384-0.188c-0.843-0.406-1.358-0.596-2.14-0.884
			c-0.33-0.122-0.705-0.259-1.173-0.438c-2.451-0.938-3.446-1.079-4.171-1.182c-0.196-0.03-0.382-0.056-0.574-0.093
			C105.754,43.838,105.734,43.836,105.719,43.835"/>
		<path fill="#323333" d="M107.249,58.966c0.501-0.546,0.999-1.098,1.485-1.658c-0.704-0.701-1.45-1.357-2.24-1.968
			c-0.899-0.697-2.201-1.452-3.378-2.078c-0.71-0.376-1.441,0.462-0.976,1.114c1.046,1.459,2.011,2.898,2.886,4.303
			c0.342,0.547,0.667,1.088,0.982,1.625C106.423,59.859,106.838,59.413,107.249,58.966"/>
		<path fill="#323333" d="M105.979,60.605c0,0-0.003,0-0.004,0c-0.095-0.012-0.179-0.067-0.225-0.148
			c-0.313-0.533-0.642-1.077-0.976-1.617c-0.87-1.395-1.836-2.838-2.877-4.289c-0.292-0.408-0.265-0.937,0.064-1.316
			c0.332-0.378,0.852-0.476,1.297-0.238c1.485,0.789,2.635,1.498,3.422,2.106c0.79,0.612,1.553,1.283,2.267,1.992
			c0.112,0.112,0.118,0.291,0.015,0.411c-0.436,0.504-0.922,1.048-1.488,1.664c-0.43,0.467-0.87,0.938-1.246,1.34
			C106.164,60.579,106.071,60.613,105.979,60.605 M102.792,53.471c-0.159-0.014-0.292,0.063-0.377,0.16
			c-0.118,0.132-0.183,0.351-0.026,0.569c1.046,1.462,2.021,2.916,2.895,4.32c0.266,0.428,0.528,0.858,0.78,1.283
			c0.305-0.329,0.641-0.686,0.965-1.041c0.483-0.527,0.908-0.999,1.293-1.438c-0.636-0.619-1.312-1.205-2.012-1.746
			c-0.747-0.579-1.9-1.288-3.334-2.05C102.911,53.495,102.851,53.477,102.792,53.471"/>
		<path fill="#323333" d="M46.248,33.934c0.194-1.635,0.423-3.265,0.609-4.901c0.151-0.006,0.31-0.011,0.474-0.016
			c0.819-0.019,1.881-0.021,3.127,0.044c1.422,0.102,3.306,0.514,4.876,0.917c0.776,0.2,0.752,1.307-0.027,1.479
			c-2.165,0.474-4.234,1.001-6.187,1.572C48.135,33.319,47.176,33.622,46.248,33.934"/>
		<path fill="#323333" d="M46.22,34.234c-0.06-0.006-0.116-0.028-0.163-0.066c-0.081-0.066-0.122-0.167-0.11-0.269
			c0.089-0.729,0.182-1.471,0.275-2.187c0.114-0.89,0.232-1.808,0.336-2.713c0.015-0.147,0.138-0.261,0.286-0.267
			c0.152-0.006,0.312-0.01,0.478-0.015c1.042-0.026,2.101-0.011,3.15,0.042c0.003,0,0.004,0.002,0.005,0.002
			c1.521,0.109,3.521,0.564,4.93,0.927c0.486,0.124,0.806,0.545,0.797,1.046c-0.01,0.5-0.347,0.911-0.835,1.018
			c-2.155,0.474-4.228,1.001-6.166,1.568c-0.976,0.286-1.937,0.589-2.86,0.899C46.303,34.233,46.261,34.238,46.22,34.234
			 M47.127,29.325c-0.096,0.825-0.204,1.657-0.307,2.463c-0.072,0.561-0.146,1.136-0.218,1.71c0.791-0.26,1.607-0.514,2.432-0.756
			c1.95-0.572,4.037-1.103,6.206-1.579c0.262-0.057,0.358-0.266,0.362-0.441c0.003-0.174-0.084-0.385-0.344-0.451
			c-1.386-0.356-3.346-0.803-4.82-0.908c-1.033-0.055-2.077-0.068-3.102-0.042C47.268,29.322,47.197,29.324,47.127,29.325"/>
		<path fill="#323333" d="M46.566,45.248c-0.178-0.63-0.329-1.268-0.443-1.913c-0.152-0.843-0.232-1.691-0.274-2.544
			c-0.008-0.273-0.014-0.546-0.016-0.818c0.197-0.059,0.41-0.118,0.636-0.18c1.297-0.346,1.842-0.383,3.53-0.684
			c3.295-0.589,4.043-0.362,4.949-0.368c0.801-0.008,1.064,1.068,0.353,1.436c-1.263,0.651-2.254,1.174-5.572,3.113
			C48.381,44.077,47.338,44.729,46.566,45.248"/>
		<path fill="#323333" d="M46.538,45.547c-0.026-0.002-0.053-0.007-0.076-0.016c-0.091-0.034-0.16-0.109-0.187-0.202
			c-0.184-0.655-0.335-1.308-0.449-1.941c-0.138-0.783-0.229-1.627-0.277-2.583c0-0.002-0.001-0.003-0.001-0.005
			c-0.007-0.264-0.012-0.534-0.014-0.826c0-0.133,0.086-0.251,0.215-0.29c0.2-0.061,0.417-0.122,0.647-0.182
			c0.932-0.249,1.486-0.342,2.324-0.48c0.345-0.058,0.737-0.122,1.227-0.209c2.648-0.475,3.69-0.424,4.453-0.39
			c0.196,0.009,0.368,0.018,0.546,0.015c0.5-0.005,0.917,0.319,1.039,0.806c0.121,0.487-0.098,0.97-0.544,1.2
			c-1.293,0.669-2.312,1.209-5.559,3.105c-1.235,0.722-2.294,1.378-3.147,1.95C46.675,45.537,46.605,45.553,46.538,45.547
			 M46.149,40.778c0.046,0.93,0.136,1.748,0.271,2.503c0.086,0.486,0.197,0.983,0.327,1.486c0.797-0.522,1.747-1.105,2.832-1.738
			c3.256-1.903,4.281-2.449,5.585-3.121c0.237-0.123,0.277-0.351,0.236-0.52c-0.042-0.168-0.181-0.351-0.448-0.347
			c-0.196,0.001-0.383-0.008-0.582-0.016c-0.733-0.036-1.736-0.083-4.318,0.38c-0.495,0.087-0.887,0.151-1.234,0.211
			c-0.821,0.135-1.364,0.227-2.27,0.467c-0.141,0.038-0.279,0.076-0.409,0.114C46.14,40.398,46.144,40.589,46.149,40.778"/>
		<path fill="#323333" d="M50.668,53.618c-0.39-0.629-0.774-1.264-1.147-1.906c0.822-0.557,1.678-1.062,2.568-1.515
			c1.015-0.514,2.432-1.013,3.708-1.408c0.765-0.236,1.33,0.723,0.749,1.276c-1.301,1.239-2.519,2.472-3.641,3.687
			c-0.436,0.473-0.858,0.943-1.268,1.413C51.312,54.651,50.988,54.136,50.668,53.618"/>
		<path fill="#323333" d="M51.608,55.466c-0.091-0.01-0.176-0.061-0.226-0.14c-0.294-0.467-0.638-1.01-0.972-1.55
			c-0.441-0.711-0.816-1.336-1.151-1.914c-0.081-0.136-0.039-0.312,0.091-0.4c0.833-0.563,1.708-1.078,2.602-1.533
			c0.885-0.451,2.15-0.931,3.756-1.427c0.48-0.15,0.974,0.042,1.229,0.476c0.253,0.434,0.181,0.958-0.184,1.306
			c-1.293,1.23-2.515,2.467-3.625,3.673c-0.432,0.466-0.856,0.939-1.265,1.406c-0.062,0.071-0.153,0.109-0.25,0.103
			C51.612,55.467,51.611,55.466,51.608,55.466 M50.923,53.46c0.254,0.411,0.514,0.824,0.754,1.205
			c0.327-0.373,0.663-0.746,1.006-1.115c1.122-1.215,2.352-2.461,3.653-3.701c0.194-0.185,0.168-0.411,0.08-0.564
			c-0.088-0.151-0.275-0.285-0.531-0.207c-1.55,0.48-2.816,0.961-3.661,1.389c-0.788,0.4-1.562,0.851-2.301,1.338
			C50.22,52.309,50.548,52.853,50.923,53.46"/>
		<path d="M103.069,18.666c-0.194-0.019-0.381-0.118-0.505-0.29c-0.225-0.315-0.155-0.755,0.161-0.981
			c0.09-0.064,2.223-1.585,5.214-2.815c1.769-0.728,3.471-1.2,5.056-1.402c2.025-0.258,3.866-0.078,5.48,0.532
			c0.362,0.138,0.547,0.545,0.41,0.907c-0.116,0.302-0.417,0.48-0.725,0.45c-0.06-0.006-0.124-0.02-0.183-0.042
			c-3.185-1.206-6.909-0.207-9.477,0.845c-2.841,1.165-4.933,2.652-4.955,2.667C103.401,18.64,103.231,18.682,103.069,18.666"/>
		<path d="M47.064,26.599c-0.058-0.006-0.117-0.018-0.174-0.039c-0.365-0.132-0.553-0.534-0.424-0.9
			c0.021-0.057,0.505-1.387,1.548-3.404c0.18-0.346,0.604-0.479,0.947-0.301c0.346,0.177,0.48,0.601,0.303,0.947
			c-0.997,1.926-1.469,3.222-1.475,3.235C47.68,26.446,47.375,26.627,47.064,26.599"/>
		<path fill="#3E3A39" d="M47.935,7.521L47.935,7.521c4.055-2.749,7.904-2.68,12.07-0.399c-1.282,0.349-2.669,0.904-3.986,1.783
			C54.258,7.667,51.676,6.86,47.935,7.521"/>
		<path d="M61.404,14.376c-0.161-0.015-0.313-0.083-0.435-0.206c-0.029-0.029-1.835-1.844-4.437-3.466
			c-2.349-1.468-5.854-3.082-9.197-2.428c-0.38,0.074-0.749-0.175-0.824-0.557c-0.073-0.381,0.175-0.75,0.554-0.825
			c1.696-0.33,3.543-0.196,5.492,0.399c1.529,0.468,3.127,1.22,4.748,2.235c2.74,1.716,4.587,3.576,4.665,3.654
			c0.272,0.276,0.27,0.723-0.006,0.994C61.809,14.329,61.604,14.396,61.404,14.376"/>
		<path fill="#323333" d="M85.282,9.479c0.02-0.507,0.027-1.009,0.023-1.503c-0.138-0.035-0.273-0.067-0.413-0.098
			c0.006-0.031,0.015-0.063,0.024-0.093c-0.104-0.015-0.207-0.026-0.31-0.037C84.4,7.729,84.194,7.712,83.988,7.7
			c-0.206-0.037-0.413-0.07-0.624-0.098c-0.103-0.015-0.208-0.026-0.311-0.038c0,0.034,0,0.066,0,0.1
			c-0.13-0.001-0.259-0.001-0.389,0c-0.118,0.478-0.227,0.971-0.325,1.466c-0.404,2.042-0.624,4.139-0.642,6.232v0.001
			c-0.002,0.61,0.003,1.121,0.026,1.607l0.007,0.201c0.003,0.044,0.004,0.089,0.008,0.133c0.001,0.023,0.002,0.046,0.002,0.069
			c0.006,0.119,0.015,0.258,0.027,0.399c0.002,0.061,0.006,0.121,0.012,0.179l0.001,0.024c0.006,0.067,0.01,0.134,0.016,0.201
			l0.027,0.298l0.009,0.103c0.012,0.12,0.026,0.26,0.043,0.398c0.013,0.12,0.031,0.26,0.048,0.401l0.024,0.197
			c0.007,0.044,0.014,0.09,0.02,0.134c0.003,0.021,0.006,0.043,0.009,0.067c0.017,0.119,0.035,0.238,0.056,0.355l0.006,0.041
			c0.01,0.047,0.016,0.095,0.025,0.14c0.057,0.336,0.223,0.491,0.376,0.465c0.144,0.061,0.343-0.051,0.48-0.363
			c0.018-0.044,0.036-0.087,0.056-0.132l0.015-0.037c0.047-0.11,0.093-0.222,0.139-0.334c0.009-0.022,0.018-0.041,0.026-0.062
			c0.015-0.042,0.033-0.083,0.047-0.125l0.074-0.187c0.053-0.132,0.1-0.265,0.142-0.378c0.048-0.131,0.096-0.264,0.136-0.377
			l0.035-0.098l0.095-0.284c0.024-0.063,0.044-0.127,0.065-0.191l0.006-0.024c0.019-0.055,0.039-0.113,0.056-0.171
			c0.045-0.134,0.083-0.269,0.119-0.383c0.006-0.022,0.015-0.044,0.021-0.066c0.012-0.042,0.026-0.085,0.038-0.127l0.056-0.192
			c0.136-0.467,0.263-0.962,0.404-1.556v-0.001C84.917,13.647,85.201,11.558,85.282,9.479"/>
		<path fill="#323333" d="M82.522,20.899c-0.034,0-0.064-0.005-0.097-0.014c-0.188,0.012-0.397-0.15-0.467-0.555
			c-0.007-0.047-0.013-0.093-0.022-0.141l-0.009-0.042c-0.016-0.11-0.037-0.235-0.055-0.356l-0.008-0.065
			c-0.008-0.047-0.014-0.091-0.02-0.138l-0.026-0.197c-0.018-0.141-0.036-0.282-0.047-0.402c-0.018-0.14-0.031-0.281-0.042-0.4
			l-0.014-0.103l-0.023-0.301c-0.006-0.066-0.01-0.134-0.015-0.2l-0.003-0.027c-0.003-0.058-0.009-0.119-0.013-0.18
			c-0.009-0.139-0.017-0.281-0.025-0.399l-0.002-0.069c-0.005-0.045-0.006-0.089-0.008-0.134l-0.007-0.2
			c-0.024-0.49-0.03-1.001-0.026-1.614v-0.003c0.021-2.099,0.239-4.203,0.643-6.25c0.099-0.495,0.209-0.989,0.327-1.471
			c0.012-0.048,0.055-0.08,0.103-0.081c0.089-0.001,0.18-0.001,0.283,0c0.003-0.028,0.015-0.053,0.036-0.071
			c0.02-0.021,0.053-0.031,0.081-0.027c0.113,0.012,0.219,0.025,0.313,0.038c0.201,0.027,0.41,0.061,0.625,0.096
			c0.212,0.015,0.418,0.031,0.616,0.051c0.097,0.009,0.198,0.021,0.311,0.037c0.028,0.003,0.055,0.02,0.072,0.045
			c0.016,0.021,0.021,0.047,0.019,0.074c0.107,0.024,0.21,0.049,0.31,0.075c0.047,0.012,0.081,0.053,0.081,0.102
			c0.003,0.496-0.003,1.002-0.023,1.508c-0.083,2.086-0.364,4.181-0.836,6.228c-0.143,0.598-0.271,1.094-0.407,1.563l-0.056,0.194
			c-0.013,0.042-0.025,0.085-0.04,0.127c-0.006,0.022-0.012,0.044-0.018,0.067c-0.038,0.122-0.08,0.251-0.119,0.383
			c-0.016,0.058-0.037,0.115-0.055,0.172l-0.008,0.024c-0.021,0.064-0.042,0.128-0.062,0.192l-0.097,0.284l-0.036,0.099
			c-0.04,0.113-0.085,0.247-0.136,0.379c-0.042,0.115-0.091,0.247-0.144,0.38l-0.071,0.186c-0.016,0.042-0.032,0.083-0.05,0.125
			L83.23,19.95c-0.047,0.114-0.094,0.229-0.141,0.335l-0.015,0.039c-0.021,0.044-0.039,0.088-0.058,0.132
			C82.879,20.769,82.688,20.896,82.522,20.899 M82.438,20.671c0.014,0,0.028,0.002,0.043,0.007c0.085,0.037,0.231-0.057,0.339-0.307
			c0.021-0.043,0.038-0.086,0.059-0.131l0.015-0.037c0.044-0.108,0.091-0.219,0.138-0.331l0.023-0.062
			c0.017-0.042,0.033-0.083,0.05-0.124l0.07-0.187c0.053-0.13,0.101-0.264,0.142-0.375c0.051-0.133,0.095-0.265,0.136-0.377
			l0.036-0.096l0.094-0.284c0.023-0.063,0.044-0.126,0.063-0.19l0.008-0.024c0.018-0.056,0.037-0.112,0.056-0.169
			c0.042-0.132,0.08-0.261,0.118-0.381c0.006-0.023,0.012-0.043,0.019-0.065c0.014-0.044,0.025-0.084,0.037-0.127l0.056-0.193
			c0.136-0.466,0.264-0.959,0.404-1.551c0.471-2.035,0.752-4.118,0.832-6.19c0.02-0.473,0.026-0.949,0.023-1.415
			c-0.103-0.025-0.212-0.051-0.33-0.077c-0.029-0.006-0.053-0.023-0.068-0.047c-0.01-0.018-0.015-0.038-0.015-0.06
			c-0.068-0.008-0.129-0.014-0.189-0.02c-0.197-0.02-0.403-0.036-0.616-0.049c-0.003,0-0.009,0-0.01-0.001
			c-0.214-0.038-0.423-0.071-0.621-0.099C83.29,7.7,83.228,7.69,83.158,7.684c-0.004,0.021-0.016,0.042-0.03,0.056
			c-0.02,0.02-0.047,0.03-0.075,0.03c-0.11,0-0.21-0.001-0.304,0c-0.112,0.453-0.215,0.917-0.307,1.381
			c-0.403,2.034-0.619,4.125-0.64,6.212v0.003c-0.002,0.605,0.005,1.115,0.027,1.6l0.006,0.199c0.003,0.045,0.006,0.089,0.009,0.133
			l0.003,0.07c0.008,0.118,0.014,0.258,0.024,0.397c0.003,0.059,0.009,0.119,0.014,0.175l0.001,0.026
			c0.005,0.068,0.011,0.135,0.017,0.201l0.026,0.299l0.009,0.102c0.012,0.119,0.027,0.257,0.043,0.397
			c0.013,0.119,0.028,0.258,0.048,0.398l0.025,0.197c0.007,0.046,0.013,0.09,0.019,0.134l0.009,0.066
			c0.018,0.121,0.038,0.244,0.056,0.354l0.006,0.041c0.006,0.045,0.015,0.093,0.023,0.139c0.044,0.264,0.164,0.393,0.253,0.379
			C82.429,20.671,82.431,20.671,82.438,20.671"/>
		<path fill="#323333" d="M91.543,14.248c0.669,0.069,0.952-0.775,0.369-1.098c-0.301-0.166-0.531-0.29-0.61-0.325l-0.08-0.036
			c-0.063-0.026-0.127-0.055-0.189-0.081l-0.07-0.03c-0.031-0.013-0.06-0.026-0.091-0.038c-0.056-0.025-0.115-0.05-0.171-0.072
			c-0.05-0.021-0.1-0.042-0.15-0.063c-0.124-0.05-0.251-0.102-0.376-0.152c-0.762-0.303-1.466-0.56-2.153-0.788
			c-0.678-0.226-1.402-0.444-2.211-0.668c-0.207-0.057-0.389-0.109-0.554-0.16c-0.058-0.016-0.114-0.034-0.171-0.051
			c-0.036-0.012-0.071-0.022-0.106-0.034c-0.065-0.02-0.128-0.039-0.192-0.06l-0.085-0.026c-0.015-0.034-1.63-0.161-1.846-0.191
			c-0.191-0.026-0.373-0.071-0.471-0.072l-0.717-0.056l-0.527-0.007c-0.572,0.029-1.1,0.064-1.613,0.109
			c-0.721,0.064-1.467,0.153-2.276,0.272c-0.136,0.019-0.271,0.041-0.401,0.061c-0.056,0.008-0.109,0.017-0.162,0.025
			c-0.062,0.01-0.124,0.02-0.186,0.03c-0.029,0.006-0.065,0.012-0.095,0.018l-0.076,0.012c-0.065,0.011-0.136,0.024-0.205,0.036
			l-0.087,0.016c-0.333,0.063-0.681,0.126-1.017,0.2c-0.003,0.001-0.007,0.001-0.014,0.005c-0.63,0.165-0.542,1.035,0.108,1.108
			c0.982,0.11,1.963,0.22,2.308,0.252c0.644,0.061,1.33,0.135,2.161,0.233c0.251,0.029,0.507,0.06,0.783,0.093l0.013,0.002
			l0.013-0.002c0.314-0.021,0.989,0.137,0.989,0.137l0.085,0.025c0.221,0.06,1.297,0.211,2.438,0.371
			c1.173,0.165,2.5,0.352,2.721,0.419l0.012,0.004l0.012,0.001c0.278,0.03,0.536,0.06,0.784,0.088
			c0.83,0.096,1.515,0.183,2.157,0.272C89.896,14.073,90.687,14.159,91.543,14.248"/>
		<path fill="#323333" d="M91.632,14.358c-0.033,0-0.065,0-0.101-0.004c-1.035-0.108-1.692-0.183-1.953-0.217
			c-0.642-0.089-1.325-0.176-2.154-0.271c-0.246-0.029-0.501-0.059-0.784-0.09l-0.012,0c-0.007,0-0.013-0.001-0.019-0.004
			l-0.014-0.004c-0.212-0.065-1.592-0.259-2.703-0.415c-1.194-0.168-2.223-0.312-2.45-0.375l-0.085-0.022
			c-0.042-0.01-0.672-0.152-0.957-0.135l-0.012,0.001c-0.007,0-0.013,0-0.02-0.001l-0.014-0.001
			c-0.28-0.033-0.535-0.063-0.781-0.093c-0.831-0.098-1.516-0.172-2.159-0.233c-0.292-0.027-1.068-0.112-2.309-0.253
			c-0.405-0.046-0.607-0.35-0.627-0.631c-0.021-0.27,0.127-0.586,0.503-0.687c0.009-0.001,0.015-0.003,0.02-0.004
			c0.337-0.074,0.684-0.138,1.021-0.2l0.087-0.017c0.069-0.012,0.137-0.025,0.207-0.037l0.075-0.012
			c0.03-0.004,0.062-0.01,0.091-0.015l0.009-0.002c0.059-0.009,0.119-0.02,0.18-0.03c0.05-0.008,0.098-0.014,0.144-0.022
			l0.018-0.003c0.131-0.021,0.267-0.041,0.402-0.061c0.812-0.119,1.558-0.207,2.283-0.272c0.514-0.046,1.044-0.081,1.617-0.11
			c0.003,0,0.005,0,0.007,0l0.528,0.007c0,0,0.003,0,0.006,0l0.71,0.056c0.069,0,0.162,0.019,0.271,0.038
			c0.068,0.013,0.139,0.025,0.212,0.036c0.077,0.01,0.359,0.037,0.657,0.063c0.262,0.023,0.557,0.051,0.787,0.074
			c0.127,0.013,0.221,0.022,0.286,0.032c0.062,0.008,0.107,0.014,0.142,0.029l0.074,0.024c0.064,0.019,0.128,0.038,0.191,0.059
			c0.038,0.011,0.07,0.021,0.109,0.034l0.004,0.002c0.056,0.016,0.108,0.033,0.164,0.048c0.165,0.052,0.346,0.103,0.552,0.159
			c0.812,0.226,1.537,0.444,2.218,0.67c0.688,0.229,1.393,0.487,2.155,0.791c0.129,0.05,0.256,0.103,0.377,0.151
			c0.05,0.021,0.1,0.042,0.152,0.063c0.059,0.023,0.117,0.048,0.172,0.072l0.009,0.004c0.027,0.01,0.055,0.023,0.081,0.035
			l0.072,0.029c0.062,0.028,0.127,0.055,0.189,0.082l0.082,0.036c0.074,0.034,0.277,0.141,0.62,0.33
			c0.348,0.193,0.421,0.544,0.339,0.808C92.224,14.115,91.989,14.354,91.632,14.358 M86.661,13.563h0.003
			c0.283,0.033,0.539,0.062,0.786,0.09c0.83,0.095,1.517,0.183,2.156,0.272c0.259,0.036,0.917,0.109,1.946,0.216
			c0.315,0.033,0.492-0.162,0.548-0.34c0.053-0.167,0.021-0.414-0.24-0.558c-0.411-0.227-0.554-0.299-0.6-0.321l-0.08-0.036
			c-0.063-0.026-0.126-0.054-0.188-0.08l-0.071-0.03c-0.03-0.012-0.058-0.023-0.085-0.035l-0.006-0.003
			c-0.056-0.025-0.114-0.049-0.171-0.071c-0.049-0.021-0.101-0.042-0.15-0.061c-0.124-0.052-0.25-0.103-0.375-0.154
			c-0.759-0.301-1.462-0.558-2.146-0.786C87.31,11.443,86.589,11.225,85.78,11c-0.208-0.056-0.389-0.108-0.556-0.159
			c-0.054-0.016-0.11-0.034-0.166-0.052l-0.004,0c-0.036-0.011-0.071-0.022-0.108-0.033c-0.065-0.019-0.129-0.039-0.193-0.059
			l-0.084-0.027c-0.006-0.001-0.009-0.003-0.014-0.007c-0.103-0.022-0.728-0.078-1.145-0.117c-0.316-0.027-0.587-0.053-0.669-0.063
			c-0.077-0.011-0.153-0.025-0.221-0.037c-0.098-0.018-0.188-0.033-0.239-0.033c0,0-0.004,0-0.006,0l-0.713-0.058l-0.519-0.006
			c-0.572,0.028-1.097,0.064-1.606,0.108c-0.719,0.063-1.462,0.153-2.27,0.271c-0.135,0.021-0.272,0.041-0.401,0.062l-0.015,0.002
			l-0.144,0.024c-0.063,0.01-0.121,0.02-0.18,0.029l-0.009,0.001c-0.03,0.004-0.06,0.01-0.093,0.017l-0.073,0.012
			c-0.069,0.011-0.136,0.022-0.205,0.035l-0.085,0.016c-0.333,0.062-0.68,0.125-1.015,0.199c-0.006,0.002-0.007,0.002-0.012,0.002
			c-0.273,0.074-0.359,0.296-0.345,0.466c0.015,0.194,0.156,0.405,0.439,0.437c1.241,0.14,2.015,0.224,2.307,0.251
			c0.644,0.062,1.331,0.134,2.162,0.233c0.247,0.029,0.502,0.06,0.784,0.094h0.003h0.003c0.327-0.021,0.993,0.131,1.02,0.138
			c0.002,0.002,0.003,0.002,0.004,0.002l0.087,0.023c0.215,0.059,1.337,0.217,2.421,0.37c1.234,0.173,2.512,0.352,2.737,0.421
			L86.661,13.563z M84.601,10.603c0.003,0.008,0.004,0.015,0.009,0.022C84.605,10.618,84.604,10.611,84.601,10.603"/>
		<path fill="#323333" d="M90.607,18.828c0.629,0.067,0.9-0.78,0.355-1.099c-0.283-0.165-0.501-0.287-0.574-0.32l-0.075-0.036
			c-0.059-0.026-0.118-0.054-0.177-0.08l-0.066-0.029l-0.084-0.039c-0.054-0.023-0.107-0.047-0.164-0.071
			c-0.044-0.02-0.092-0.04-0.14-0.06c-0.115-0.052-0.236-0.1-0.354-0.15c-0.714-0.3-1.371-0.552-2.017-0.776
			c-0.637-0.221-1.314-0.437-2.075-0.655c-0.194-0.055-0.364-0.105-0.519-0.156c-0.054-0.017-0.109-0.034-0.162-0.052
			c-0.033-0.011-0.067-0.021-0.101-0.032c-0.059-0.02-0.121-0.039-0.182-0.059l-0.078-0.026c-0.01-0.032-1.53-0.149-1.733-0.179
			c-0.18-0.026-0.351-0.068-0.442-0.068l-0.672-0.053l-0.497-0.005c-0.538,0.032-1.035,0.072-1.516,0.119
			c-0.68,0.069-1.379,0.161-2.143,0.285c-0.125,0.019-0.254,0.043-0.378,0.063c-0.05,0.008-0.1,0.017-0.15,0.024
			c-0.058,0.012-0.115,0.021-0.174,0.034c-0.029,0.005-0.059,0.011-0.09,0.016l-0.069,0.013c-0.065,0.013-0.13,0.024-0.195,0.038
			l-0.08,0.017c-0.315,0.062-0.643,0.129-0.959,0.205c-0.004,0.001-0.007,0.002-0.013,0.003c-0.591,0.17-0.516,1.04,0.095,1.109
			c0.924,0.105,1.845,0.208,2.169,0.239c0.604,0.057,1.248,0.127,2.028,0.221c0.236,0.027,0.478,0.057,0.737,0.088l0.012,0.002
			l0.012-0.001c0.295-0.022,0.929,0.131,0.929,0.131l0.082,0.022c0.207,0.061,1.218,0.206,2.289,0.358
			c1.101,0.158,2.348,0.336,2.555,0.403l0.012,0.004l0.012,0.001c0.259,0.029,0.501,0.058,0.734,0.084
			c0.781,0.092,1.426,0.174,2.025,0.26C89.058,18.662,89.804,18.743,90.607,18.828"/>
		<path fill="#323333" d="M90.691,18.937c-0.031,0.001-0.063,0-0.094-0.002c-0.972-0.102-1.589-0.172-1.835-0.208
			c-0.602-0.085-1.244-0.168-2.023-0.258c-0.23-0.028-0.472-0.056-0.734-0.085l-0.015-0.001c-0.006-0.001-0.012-0.001-0.018-0.004
			l-0.01-0.003c-0.199-0.064-1.496-0.251-2.538-0.399c-1.122-0.161-2.087-0.299-2.302-0.36l-0.08-0.024
			c-0.037-0.008-0.629-0.146-0.897-0.126l-0.012,0.001c-0.006,0-0.012,0-0.018,0l-0.013-0.001c-0.264-0.032-0.505-0.062-0.736-0.09
			c-0.778-0.093-1.423-0.162-2.026-0.22c-0.276-0.025-1.007-0.107-2.171-0.239c-0.38-0.043-0.568-0.348-0.585-0.628
			c-0.017-0.27,0.123-0.586,0.479-0.689c0.006-0.002,0.012-0.004,0.018-0.005c0.315-0.077,0.643-0.142,0.959-0.206l0.083-0.017
			c0.063-0.012,0.128-0.025,0.193-0.038l0.07-0.012c0.03-0.005,0.059-0.01,0.089-0.016l0.004-0.001
			c0.057-0.01,0.116-0.022,0.172-0.032c0.046-0.007,0.092-0.016,0.137-0.023l0.015-0.003c0.122-0.021,0.249-0.042,0.377-0.063
			c0.765-0.124,1.467-0.216,2.147-0.284c0.484-0.048,0.982-0.087,1.52-0.12h0.009l0.494,0.004c0.003,0,0.006,0,0.007,0.001
			l0.671,0.051c0.062,0,0.15,0.016,0.25,0.036c0.065,0.011,0.131,0.024,0.201,0.033c0.07,0.012,0.337,0.035,0.618,0.06
			c0.245,0.022,0.526,0.047,0.741,0.07c0.118,0.011,0.205,0.021,0.268,0.028c0.056,0.009,0.101,0.015,0.133,0.03l0.068,0.022
			c0.061,0.021,0.12,0.039,0.18,0.058c0.036,0.011,0.069,0.022,0.104,0.033l0.002,0.002c0.052,0.017,0.104,0.033,0.155,0.049
			c0.155,0.049,0.325,0.1,0.517,0.155c0.761,0.221,1.442,0.435,2.081,0.658c0.646,0.223,1.309,0.479,2.022,0.777
			c0.119,0.048,0.239,0.1,0.354,0.149c0.047,0.021,0.095,0.042,0.142,0.061c0.056,0.023,0.109,0.048,0.164,0.073l0.005,0.002
			l0.08,0.034l0.064,0.03c0.06,0.027,0.121,0.053,0.18,0.081l0.075,0.035c0.071,0.033,0.259,0.139,0.58,0.326
			c0.327,0.19,0.392,0.542,0.315,0.805C91.248,18.693,91.027,18.931,90.691,18.937 M86.021,18.171h0.003
			c0.265,0.03,0.507,0.058,0.74,0.086c0.778,0.091,1.423,0.173,2.025,0.259c0.245,0.035,0.858,0.104,1.828,0.206
			c0.294,0.031,0.462-0.165,0.514-0.341c0.052-0.17,0.025-0.415-0.22-0.558c-0.386-0.225-0.521-0.297-0.563-0.317l-0.077-0.035
			c-0.058-0.027-0.117-0.054-0.175-0.08l-0.066-0.03c-0.027-0.012-0.054-0.023-0.08-0.035l-0.006-0.003
			c-0.053-0.023-0.106-0.048-0.159-0.071c-0.047-0.02-0.094-0.041-0.142-0.06c-0.115-0.05-0.233-0.1-0.351-0.15
			c-0.713-0.297-1.371-0.549-2.013-0.773c-0.637-0.221-1.312-0.435-2.071-0.653c-0.193-0.056-0.367-0.106-0.523-0.157
			c-0.05-0.016-0.103-0.033-0.156-0.05h-0.003c-0.033-0.013-0.065-0.022-0.101-0.034c-0.06-0.018-0.121-0.038-0.18-0.058
			l-0.081-0.025c-0.005-0.001-0.011-0.003-0.014-0.006c-0.094-0.021-0.684-0.074-1.076-0.108c-0.296-0.027-0.551-0.051-0.628-0.062
			c-0.072-0.011-0.144-0.023-0.208-0.034c-0.09-0.019-0.175-0.034-0.223-0.034c-0.003,0-0.006,0-0.007-0.001l-0.671-0.052
			l-0.485-0.003c-0.538,0.031-1.033,0.07-1.514,0.119c-0.675,0.067-1.374,0.16-2.134,0.283c-0.127,0.021-0.253,0.042-0.376,0.063
			l-0.017,0.001c-0.044,0.009-0.088,0.017-0.135,0.024c-0.056,0.009-0.112,0.019-0.168,0.032h-0.007
			c-0.028,0.006-0.058,0.011-0.087,0.016l-0.071,0.013c-0.062,0.012-0.128,0.024-0.192,0.037l-0.081,0.017
			c-0.313,0.063-0.638,0.13-0.955,0.206c-0.002,0.001-0.007,0.001-0.008,0.002c-0.26,0.075-0.339,0.298-0.33,0.466
			c0.013,0.193,0.145,0.404,0.412,0.435c1.163,0.133,1.893,0.213,2.167,0.238c0.604,0.057,1.252,0.127,2.03,0.221
			c0.233,0.028,0.475,0.058,0.739,0.089l0.001,0h0.003c0.307-0.022,0.931,0.127,0.958,0.133l0.006,0l0.08,0.024
			c0.204,0.058,1.255,0.208,2.276,0.355C84.61,17.932,85.807,18.103,86.021,18.171L86.021,18.171z M84.103,15.225
			c0.002,0.008,0.002,0.015,0.008,0.021C84.105,15.24,84.105,15.232,84.103,15.225"/>
		<path d="M89.385,30.452l0.607-0.221c0.201-0.073,0.394-0.145,0.588-0.213c0.388-0.139,0.772-0.269,1.151-0.395
			c0.38-0.125,0.757-0.243,1.136-0.35c0.379-0.108,0.756-0.206,1.136-0.297l0.286-0.066l0.286-0.062
			c0.094-0.023,0.192-0.038,0.286-0.056c0.097-0.02,0.193-0.042,0.289-0.056l0.145-0.026l0.144-0.028l0.293-0.046
			c0.049-0.008,0.096-0.017,0.146-0.025l0.147-0.021c0.098-0.014,0.198-0.029,0.295-0.044c0.099-0.012,0.197-0.025,0.298-0.039
			l0.147-0.021l0.15-0.017c0.053-0.005,0.1-0.011,0.151-0.018c0.052-0.007,0.102-0.011,0.152-0.02l0.307-0.03
			c0.205-0.028,0.413-0.042,0.622-0.068c0.106-0.014,0.211-0.021,0.32-0.033c0.106-0.014,0.213-0.024,0.325-0.044
			c-0.094-0.059-0.191-0.111-0.289-0.162c-0.098-0.05-0.194-0.103-0.295-0.144c-0.2-0.083-0.404-0.167-0.613-0.228
			c-0.104-0.033-0.209-0.065-0.316-0.093c-0.053-0.014-0.107-0.025-0.159-0.037c-0.053-0.013-0.106-0.024-0.163-0.036
			c-0.052-0.011-0.106-0.023-0.16-0.034l-0.161-0.027c-0.109-0.014-0.218-0.03-0.327-0.043c-0.109-0.011-0.218-0.019-0.329-0.028
			c-0.054-0.004-0.11-0.008-0.164-0.01c-0.056-0.002-0.112-0.003-0.168-0.004c-0.109,0-0.218-0.004-0.33,0l-0.166,0.006l-0.165,0.01
			l-0.083,0.005c-0.026,0-0.054,0.004-0.082,0.006l-0.165,0.018c-0.109,0.013-0.219,0.024-0.327,0.042l-0.326,0.057l-0.323,0.071
			c-0.431,0.103-0.85,0.238-1.259,0.407c-0.404,0.17-0.795,0.372-1.166,0.607c-0.188,0.117-0.364,0.243-0.538,0.375
			c-0.044,0.033-0.087,0.067-0.13,0.101c-0.042,0.036-0.084,0.07-0.127,0.104c-0.041,0.037-0.083,0.071-0.124,0.108
			c-0.041,0.036-0.083,0.073-0.121,0.111c-0.159,0.15-0.311,0.308-0.453,0.474c-0.069,0.084-0.14,0.171-0.203,0.261
			C89.503,30.263,89.441,30.355,89.385,30.452"/>
		<path d="M89.388,30.665c-0.061,0-0.121-0.025-0.164-0.073c-0.058-0.067-0.066-0.164-0.025-0.242
			c0.059-0.109,0.128-0.209,0.193-0.299c0.063-0.087,0.131-0.176,0.214-0.273c0.15-0.175,0.306-0.34,0.469-0.492
			c0.032-0.031,0.062-0.058,0.094-0.085c0.01-0.009,0.021-0.02,0.032-0.029c0.039-0.037,0.079-0.071,0.118-0.104l0.009-0.007v-0.002
			c0.042-0.033,0.081-0.065,0.118-0.099l0.028-0.022c0.04-0.029,0.078-0.062,0.12-0.092c0.181-0.138,0.369-0.267,0.554-0.385
			c0.373-0.239,0.775-0.448,1.198-0.626c0.412-0.17,0.845-0.311,1.29-0.418c0,0,0.002,0,0.003,0l0.324-0.071l0.009-0.002
			l0.326-0.054c0.106-0.018,0.208-0.03,0.308-0.042l0.197-0.021h0.006c0.006,0,0.014-0.002,0.023-0.003
			c0.021-0.001,0.042-0.004,0.068-0.005l0.244-0.015h0.003l0.166-0.006h0.002c0.083-0.002,0.167,0,0.247,0
			c0.031,0,0.062,0,0.092,0.001c0.042,0,0.085,0,0.127,0.002l0.041,0h0.006c0.055,0.003,0.111,0.008,0.171,0.012l0.056,0.004
			c0.088,0.007,0.183,0.014,0.276,0.023c0.001,0,0.004,0,0.007,0c0.089,0.011,0.177,0.024,0.263,0.036l0.068,0.01h0.002l0.163,0.027
			c0.003,0,0.003,0,0.006,0c0.038,0.008,0.077,0.016,0.116,0.024c0.016,0.003,0.034,0.008,0.048,0.01
			c0.061,0.013,0.115,0.024,0.166,0.037l0.042,0.01c0.041,0.009,0.08,0.019,0.121,0.027c0.001,0.001,0.003,0.001,0.003,0.001
			c0.097,0.025,0.191,0.054,0.283,0.082l0.04,0.012c0.211,0.062,0.415,0.144,0.634,0.236c0.102,0.041,0.198,0.091,0.291,0.139
			l0.021,0.014c0.003,0,0.003,0,0.006,0.001l0.008,0.003c0.096,0.052,0.192,0.104,0.29,0.166c0.074,0.047,0.112,0.134,0.094,0.221
			c-0.015,0.087-0.084,0.154-0.171,0.168c-0.106,0.018-0.208,0.03-0.307,0.042l-0.03,0.004c-0.05,0.006-0.096,0.01-0.14,0.013
			c-0.062,0.007-0.116,0.012-0.175,0.019c0,0,0,0.001-0.003,0.001c-0.103,0.012-0.201,0.022-0.298,0.032
			c-0.112,0.009-0.218,0.021-0.325,0.035c-0.001,0-0.002,0-0.002,0l-0.305,0.031c-0.034,0.005-0.072,0.009-0.105,0.014l-0.044,0.004
			c-0.05,0.008-0.1,0.014-0.156,0.02L96.793,28.7l-0.147,0.02v0l-0.063,0.007c-0.075,0.011-0.154,0.02-0.231,0.029
			c-0.083,0.013-0.162,0.025-0.239,0.037l-0.054,0.008l-0.146,0.019l-0.035,0.007c-0.039,0.005-0.076,0.013-0.109,0.019
			l-0.289,0.046l-0.143,0.026c0,0-0.001,0.001-0.003,0.001l-0.145,0.026h-0.001c-0.066,0.011-0.133,0.025-0.204,0.038
			c-0.026,0.005-0.053,0.01-0.08,0.016c-0.034,0.007-0.07,0.014-0.109,0.02c-0.059,0.013-0.112,0.022-0.167,0.035
			c-0.004,0-0.004,0-0.007,0.002l-0.286,0.06l-0.283,0.066c-0.38,0.092-0.761,0.19-1.126,0.293
			c-0.348,0.101-0.717,0.214-1.129,0.349c-0.448,0.147-0.811,0.273-1.144,0.394c-0.156,0.054-0.31,0.11-0.47,0.169l-0.117,0.043
			l-0.607,0.222C89.436,30.66,89.415,30.664,89.388,30.665 M90.607,29.384l-0.01,0.006c-0.039,0.034-0.074,0.065-0.109,0.098
			c-0.014,0.01-0.023,0.021-0.038,0.031c-0.027,0.025-0.053,0.049-0.077,0.073l-0.006,0.004c-0.137,0.131-0.274,0.271-0.401,0.417
			l0.071-0.025c0.156-0.057,0.317-0.116,0.471-0.171c0.339-0.121,0.705-0.246,1.156-0.396c0.417-0.136,0.79-0.251,1.145-0.353
			c0.372-0.105,0.756-0.206,1.146-0.299l0.286-0.068c0.003,0,0.005,0,0.006,0l0.282-0.06c0.066-0.017,0.13-0.028,0.19-0.039
			c0.034-0.006,0.068-0.013,0.104-0.02c0.026-0.005,0.053-0.01,0.08-0.016c0.068-0.014,0.142-0.028,0.215-0.042l0.141-0.023
			l0.145-0.028c0.001,0,0.004,0,0.007-0.001l0.29-0.046c0.036-0.004,0.071-0.011,0.102-0.018l0.04-0.006
			c0.006,0,0.006-0.002,0.009-0.002l0.202-0.029c0.076-0.01,0.156-0.022,0.234-0.035c0.003,0,0.006-0.001,0.012-0.001
			c0.076-0.01,0.152-0.02,0.229-0.029l0.06-0.008l0.149-0.021c0.002,0,0.006,0,0.008,0l0.149-0.016
			c0.054-0.006,0.102-0.012,0.147-0.017l0.044-0.007c0.036-0.004,0.069-0.008,0.105-0.014H97.2L97.5,28.19
			c0.114-0.014,0.227-0.024,0.336-0.035c0.081-0.009,0.165-0.016,0.245-0.026c-0.19-0.08-0.364-0.15-0.544-0.201
			c0-0.001-0.001-0.001-0.001-0.001l-0.042-0.014c-0.088-0.026-0.179-0.053-0.265-0.077c-0.037-0.008-0.074-0.016-0.112-0.025
			l-0.042-0.009c-0.05-0.012-0.1-0.022-0.159-0.034c-0.015-0.003-0.032-0.009-0.05-0.012c-0.035-0.007-0.068-0.015-0.103-0.021
			l-0.224-0.034c-0.083-0.012-0.168-0.025-0.25-0.035c-0.088-0.009-0.18-0.016-0.265-0.024l-0.056-0.002
			c-0.056-0.004-0.107-0.006-0.158-0.01l-0.04-0.001c-0.039-0.001-0.08-0.001-0.118-0.002l-0.095,0
			c-0.078-0.001-0.153-0.002-0.227,0l-0.162,0.008l-0.248,0.011h-0.003c-0.011,0.001-0.023,0.003-0.038,0.005
			c-0.01,0.001-0.021,0.002-0.032,0.004l-0.195,0.019c-0.1,0.012-0.19,0.022-0.283,0.037l-0.321,0.056l-0.315,0.069
			c-0.423,0.101-0.834,0.235-1.224,0.396c-0.397,0.168-0.781,0.367-1.135,0.592c-0.177,0.111-0.351,0.235-0.522,0.364
			c-0.001,0.001-0.002,0.002-0.004,0.005c-0.034,0.024-0.067,0.051-0.104,0.081l-0.029,0.023
			C90.678,29.323,90.641,29.353,90.607,29.384"/>
		<path d="M74.292,29.492l-0.539-0.358c-0.176-0.117-0.35-0.232-0.521-0.344c-0.344-0.227-0.687-0.442-1.028-0.652
			c-0.34-0.209-0.679-0.413-1.021-0.607c-0.342-0.193-0.688-0.377-1.036-0.554l-0.261-0.132l-0.266-0.125
			c-0.087-0.046-0.176-0.082-0.263-0.124c-0.091-0.041-0.178-0.083-0.269-0.121l-0.135-0.059l-0.134-0.061l-0.273-0.113
			c-0.046-0.018-0.092-0.04-0.137-0.058l-0.138-0.055c-0.092-0.037-0.183-0.072-0.277-0.112c-0.093-0.034-0.186-0.069-0.279-0.105
			l-0.139-0.058l-0.144-0.049c-0.048-0.017-0.094-0.035-0.142-0.053c-0.048-0.018-0.096-0.036-0.145-0.056l-0.29-0.101
			c-0.193-0.074-0.39-0.136-0.588-0.211c-0.1-0.039-0.201-0.069-0.303-0.105c-0.102-0.037-0.203-0.076-0.305-0.12
			c0.104-0.035,0.21-0.062,0.318-0.091c0.103-0.026,0.21-0.053,0.318-0.069c0.215-0.035,0.432-0.07,0.651-0.08
			c0.109-0.007,0.216-0.014,0.327-0.016c0.055,0,0.11,0,0.163,0c0.057,0,0.111,0.001,0.166,0.002
			c0.055,0.002,0.109,0.002,0.166,0.005l0.163,0.014c0.108,0.01,0.218,0.02,0.329,0.032c0.108,0.015,0.214,0.033,0.325,0.05
			c0.054,0.009,0.109,0.018,0.16,0.028c0.057,0.011,0.109,0.023,0.163,0.036c0.107,0.026,0.215,0.048,0.323,0.076l0.159,0.045
			l0.158,0.048l0.079,0.023c0.027,0.006,0.051,0.017,0.08,0.027l0.156,0.054c0.104,0.038,0.207,0.075,0.309,0.118l0.304,0.131
			l0.298,0.144c0.394,0.201,0.771,0.432,1.127,0.691c0.354,0.259,0.687,0.549,0.992,0.863c0.152,0.157,0.297,0.321,0.435,0.491
			c0.035,0.042,0.068,0.087,0.102,0.129c0.033,0.042,0.067,0.086,0.098,0.13c0.033,0.046,0.063,0.089,0.095,0.135
			c0.031,0.046,0.063,0.088,0.092,0.135c0.121,0.182,0.23,0.372,0.329,0.568c0.049,0.098,0.097,0.196,0.137,0.3
			C74.224,29.281,74.263,29.384,74.292,29.492"/>
		<path d="M74.295,29.704c-0.042,0.001-0.084-0.011-0.121-0.035l-0.64-0.426c-0.144-0.095-0.279-0.186-0.418-0.275
			c-0.297-0.195-0.62-0.402-1.022-0.65c-0.367-0.225-0.7-0.424-1.016-0.602c-0.329-0.187-0.675-0.371-1.027-0.548l-0.258-0.13
			l-0.262-0.125c-0.003-0.001-0.004-0.003-0.007-0.003c-0.05-0.026-0.101-0.049-0.156-0.073c-0.034-0.015-0.069-0.03-0.102-0.046
			c-0.024-0.01-0.046-0.021-0.071-0.033c-0.065-0.03-0.125-0.058-0.188-0.084l-0.003-0.001l-0.135-0.058c0,0,0-0.001,0-0.001
			l-0.133-0.059l-0.27-0.112c-0.034-0.014-0.069-0.029-0.102-0.045l-0.034-0.013l-0.189-0.075c-0.072-0.03-0.146-0.058-0.222-0.092
			c-0.074-0.026-0.148-0.054-0.221-0.082L67.64,26.11c-0.002-0.001-0.002-0.001-0.002-0.001L67.5,26.055l-0.14-0.05
			c-0.052-0.019-0.102-0.037-0.146-0.053l-0.041-0.016c-0.034-0.013-0.069-0.024-0.101-0.039l-0.286-0.101
			c-0.002,0-0.004-0.001-0.007-0.002c-0.1-0.039-0.2-0.073-0.308-0.11c-0.09-0.031-0.185-0.064-0.281-0.101c0,0,0,0-0.003-0.001
			c-0.052-0.021-0.108-0.04-0.166-0.058c-0.042-0.015-0.086-0.03-0.132-0.047l-0.029-0.011c-0.091-0.034-0.188-0.07-0.288-0.113
			c-0.08-0.034-0.132-0.116-0.128-0.205c0.004-0.087,0.061-0.165,0.145-0.192c0.109-0.036,0.217-0.065,0.323-0.092l0.007-0.002
			l0.004-0.001l0.023-0.006c0.102-0.026,0.206-0.051,0.316-0.068c0.236-0.038,0.448-0.071,0.671-0.08l0.042-0.003
			c0.096-0.007,0.191-0.013,0.292-0.015h0.002c0.042-0.001,0.084,0,0.125,0h0.042c0.052,0,0.107,0.001,0.167,0.004
			c0.017,0,0.034,0.001,0.051,0.001c0.038,0,0.08,0.001,0.12,0.003h0.006l0.164,0.013h0.003l0.065,0.007
			c0.088,0.009,0.176,0.016,0.265,0.027c0.002,0,0.005,0,0.008,0c0.091,0.013,0.184,0.027,0.275,0.042l0.053,0.01
			c0.061,0.01,0.115,0.018,0.168,0.028c0.001,0,0.004,0,0.006,0l0.042,0.01c0.042,0.01,0.082,0.018,0.124,0.027
			c0.029,0.006,0.06,0.014,0.087,0.021c0.078,0.018,0.159,0.036,0.24,0.058c0.003,0,0.003,0,0.004,0l0.158,0.045
			c0.001,0,0.003,0,0.003,0l0.238,0.072c0.023,0.007,0.043,0.014,0.064,0.021c0.007,0.002,0.014,0.004,0.021,0.007
			c0.001,0,0.002,0,0.002,0l0.189,0.068c0.094,0.033,0.194,0.069,0.291,0.11l0.306,0.13c0.001,0.001,0.004,0.002,0.009,0.004
			l0.297,0.145c0.001,0,0.003,0.001,0.003,0.001c0.407,0.208,0.796,0.445,1.156,0.708c0.368,0.271,0.711,0.57,1.021,0.887
			c0.152,0.159,0.304,0.328,0.445,0.504c0.035,0.04,0.065,0.08,0.095,0.119l0.021,0.029c0.03,0.039,0.062,0.08,0.093,0.121
			c0.001,0.001,0.001,0.002,0.001,0.002l0.007,0.01c0.03,0.042,0.06,0.084,0.091,0.128c0.008,0.013,0.016,0.024,0.025,0.037
			c0.022,0.033,0.046,0.067,0.069,0.104c0.124,0.187,0.238,0.384,0.34,0.587c0.058,0.114,0.104,0.216,0.145,0.313
			c0.051,0.124,0.088,0.227,0.12,0.339c0.022,0.086-0.01,0.176-0.082,0.228C74.38,29.689,74.337,29.703,74.295,29.704
			 M69.717,26.528l0.261,0.125c0.001,0.001,0.002,0.002,0.004,0.002l0.263,0.131c0.356,0.181,0.707,0.369,1.043,0.558
			c0.323,0.183,0.658,0.382,1.031,0.61c0.405,0.251,0.733,0.46,1.033,0.656c0.137,0.09,0.28,0.187,0.419,0.277l0.063,0.042
			c-0.09-0.173-0.187-0.341-0.293-0.5c-0.001-0.001-0.003-0.004-0.005-0.005c-0.017-0.03-0.037-0.059-0.06-0.09
			c-0.009-0.012-0.019-0.027-0.026-0.039c-0.028-0.041-0.057-0.08-0.086-0.122l-0.006-0.008c-0.028-0.038-0.057-0.076-0.086-0.114
			l-0.022-0.03c-0.029-0.036-0.054-0.072-0.082-0.104c0-0.001-0.001-0.002-0.003-0.004c-0.135-0.166-0.277-0.327-0.422-0.477
			c-0.153-0.156-0.276-0.27-0.348-0.336c-0.109-0.098-0.327-0.292-0.618-0.503c-0.263-0.193-0.628-0.435-1.096-0.672l-0.292-0.142
			l-0.297-0.129c-0.086-0.035-0.175-0.067-0.268-0.101l-0.185-0.066c-0.01-0.003-0.021-0.007-0.03-0.012
			c-0.014-0.004-0.026-0.009-0.034-0.012c-0.002,0-0.004,0-0.004,0l-0.238-0.071l-0.156-0.044c-0.072-0.02-0.145-0.036-0.222-0.053
			c-0.029-0.008-0.062-0.014-0.091-0.021c-0.038-0.01-0.077-0.018-0.116-0.026l-0.039-0.008c-0.05-0.01-0.1-0.019-0.155-0.028
			l-0.054-0.008c-0.088-0.015-0.177-0.029-0.265-0.042c-0.083-0.008-0.169-0.018-0.253-0.024l-0.066-0.007l-0.161-0.013
			c-0.032,0-0.068-0.001-0.104-0.002c-0.018,0-0.036,0-0.053-0.001c-0.057-0.001-0.109-0.002-0.16-0.004h-0.044
			c-0.038-0.001-0.078-0.001-0.114-0.001c-0.09,0.002-0.184,0.008-0.275,0.013L66.96,25.13c-0.002,0-0.003,0.001-0.003,0.001
			c-0.185,0.009-0.371,0.035-0.576,0.069c0.077,0.028,0.157,0.056,0.232,0.081c0.106,0.037,0.212,0.074,0.318,0.114l0.288,0.103
			c0.002,0.001,0.006,0.001,0.007,0.001c0.032,0.014,0.065,0.026,0.097,0.039l0.044,0.016c0.042,0.015,0.088,0.032,0.139,0.05
			l0.142,0.051l0.007,0.002l0.197,0.078c0.07,0.027,0.145,0.056,0.218,0.081c0.004,0.002,0.006,0.004,0.008,0.005
			c0.074,0.031,0.148,0.06,0.221,0.09l0.053,0.021l0.137,0.053l0.006,0.004l0.04,0.016c0.031,0.014,0.063,0.027,0.092,0.04
			l0.275,0.114c0.002,0.001,0.004,0.002,0.006,0.003l0.133,0.06l0.133,0.057c0.067,0.029,0.135,0.061,0.2,0.09
			c0.023,0.011,0.046,0.022,0.071,0.033c0.033,0.016,0.065,0.03,0.097,0.043C69.598,26.471,69.657,26.498,69.717,26.528"/>
		<path d="M71.688,35.427c-0.243,2.328-1.652,4.089-3.148,3.934c-1.496-0.155-2.517-2.167-2.271-4.495
			c0.242-2.328,1.648-4.09,3.146-3.934C70.91,31.087,71.928,33.1,71.688,35.427"/>
		<path fill="#FFFFFF" d="M71.106,33.694c-0.035,0.333-0.332,0.574-0.664,0.54c-0.333-0.035-0.575-0.333-0.541-0.666
			c0.035-0.332,0.332-0.573,0.666-0.539C70.899,33.064,71.139,33.361,71.106,33.694"/>
		<path d="M94.938,38.096c-0.24,2.33-1.649,4.088-3.147,3.933c-1.496-0.154-2.514-2.167-2.273-4.495
			c0.242-2.326,1.651-4.088,3.149-3.933C94.161,33.756,95.178,35.769,94.938,38.096"/>
		<path fill="#FFFFFF" d="M94.357,36.362c-0.034,0.332-0.333,0.574-0.665,0.54c-0.333-0.035-0.573-0.332-0.539-0.665
			c0.035-0.332,0.33-0.574,0.665-0.54C94.149,35.732,94.391,36.029,94.357,36.362"/>
		<path d="M79.115,51.617c-0.033,0.001-0.065,0-0.097-0.002c-0.413-0.032-0.716-0.391-0.684-0.801l0.539-6.705
			c0.033-0.41,0.391-0.715,0.801-0.682c0.411,0.034,0.716,0.392,0.682,0.802l-0.538,6.704
			C79.787,51.309,79.484,51.598,79.115,51.617"/>
		<path fill="#3E3A39" d="M86.553,42.5c0-0.09-0.006-0.18-0.009-0.272c-0.08-0.466-0.339-0.989-1.035-1.322
			c-1.257-0.599-2.793-0.93-5.576-1.328c-0.014-0.001-0.024-0.002-0.036-0.003l-0.037-0.002c-2.809-0.131-4.38-0.094-5.725,0.26
			c-0.746,0.197-1.1,0.661-1.265,1.104c-0.022,0.09-0.041,0.178-0.06,0.266c0,0-0.043,0.209-0.077,0.464
			c-0.002,0.11,0.003,0.196,0.005,0.243c0,0,0,0.015,0.002,0.03c0.01,0.09,0.353,1.208,0.925,1.86
			c0.371,0.424,2.295,2.318,5.582,2.644c3.354,0.333,5.737-1.206,6.245-1.689c0.423-0.401,0.959-1.414,0.989-1.518l0.009-0.027
			c0,0,0.032-0.122,0.05-0.239C86.554,42.88,86.567,42.714,86.553,42.5"/>
		<path d="M77.886,67.61c-6.748-0.637-13.067-2.598-18.275-5.67c-3.897-2.14-7.1-4.783-9.521-7.858
			c-1.506-1.914-2.727-4.06-3.627-6.378c-0.744-1.916-1.279-3.973-1.591-6.115c-0.554-3.807-0.269-6.863-0.147-8.169
			c0.264-2.847,0.923-5.658,1.958-8.362c-1.643-3.73-2.515-7.371-2.523-10.552c-0.008-3.402,0.979-6.087,2.853-7.762
			c1.119-1.001,2.322-1.458,3.348-1.771c1.603-0.491,3.323-0.633,5.114-0.426c1.462,0.171,2.985,0.577,4.526,1.204
			c2.172,0.887,3.967,2.038,5.168,2.923c2.67-1.003,5.484-1.711,8.373-2.109c3.114-0.427,6.306-0.493,9.493-0.191
			c3.331,0.315,6.59,1.021,9.689,2.103c2.875,1.004,5.604,2.324,8.109,3.927c1.642-0.746,3.333-1.282,5.03-1.593
			c2.988-0.548,5.866-0.38,8.557,0.502c1.426,0.467,3.202,1.05,4.507,2.597c0.792,0.939,1.309,2.123,1.539,3.52
			c0.214,1.323,0.17,2.815-0.139,4.433c-0.303,1.592-0.855,3.279-1.636,5.014c-0.761,1.681-1.726,3.379-2.874,5.05
			c0.533,2.871,0.66,5.776,0.38,8.642c-0.004,0.047-0.008,0.101-0.013,0.161c-0.109,1.129-0.393,4.126-1.644,7.763
			c-0.71,2.059-1.623,3.992-2.715,5.744c-1.324,2.131-2.93,4.021-4.769,5.624c-1.763,1.532-3.797,2.876-6.049,3.997
			c-2.177,1.081-4.567,1.962-7.105,2.612c-2.483,0.637-5.113,1.058-7.819,1.249C83.398,67.905,80.639,67.87,77.886,67.61
			 M55.06,5.911c-1.396-0.132-2.844-0.036-4.289,0.406c-0.58,0.176-1.783,0.544-2.824,1.474c-1.566,1.4-2.389,3.722-2.383,6.712
			c0.006,3.061,0.877,6.604,2.519,10.247l0.12,0.271l-0.106,0.276c-1.048,2.665-1.712,5.442-1.973,8.253
			c-0.731,7.843,0.976,14.459,5.071,19.663c2.307,2.93,5.368,5.452,9.103,7.5l0.018,0.011c5.035,2.971,11.156,4.868,17.704,5.488
			c11.062,1.046,21.572-1.727,28.112-7.413c4.871-4.234,7.943-10.699,8.651-18.2c0.004-0.062,0.01-0.117,0.016-0.166
			c0.274-2.829,0.136-5.697-0.418-8.528l-0.057-0.292l0.171-0.244c2.332-3.341,3.872-6.719,4.451-9.768
			c0.559-2.928,0.18-5.274-1.093-6.785c-1.045-1.24-2.545-1.732-3.869-2.166c-5.354-1.755-10.384-0.007-12.905,1.191l-0.357,0.169
			l-0.331-0.215c-5.098-3.34-11.146-5.422-17.489-6.021c-6.062-0.572-12.145,0.24-17.59,2.351l-0.365,0.142l-0.313-0.237
			C62.95,8.749,59.246,6.306,55.06,5.911"/>
		<path fill="#040000" d="M64.211,46.743c-0.112-0.013-0.213-0.089-0.255-0.205c-0.052-0.142,0.004-0.304,0.13-0.38
			c0.781-0.472,1.18-0.953,1.379-1.273c0.201-0.324,0.24-0.553,0.244-0.576c0.015-0.17,0.157-0.292,0.321-0.284
			c0.167,0.01,0.292,0.16,0.287,0.331c-0.038,1.044-0.588,1.639-1.044,1.954c-0.481,0.333-0.957,0.425-0.975,0.43
			C64.269,46.745,64.239,46.746,64.211,46.743"/>
		<path fill="#040000" d="M93.39,49.799c-0.034-0.003-0.068-0.012-0.102-0.028c-0.905-0.431-1.2-1.155-1.285-1.688
			c-0.091-0.562,0.03-1.026,0.034-1.045c0.04-0.146,0.174-0.244,0.32-0.23c0.001,0,0.003,0,0.006,0
			c0.145,0.014,0.258,0.132,0.273,0.281c0.088,0.865,0.337,1.398,0.532,1.693c0.197,0.296,0.378,0.417,0.398,0.429
			c0.147,0.079,0.203,0.261,0.13,0.414C93.636,49.745,93.515,49.812,93.39,49.799"/>
		<path fill="#040000" d="M92.86,48.385c0-0.044,0-0.089,0-0.134v-0.067c0-0.033-0.006-0.068-0.016-0.1
			c-0.02-0.065-0.06-0.124-0.113-0.166c-0.053-0.043-0.118-0.068-0.184-0.073c-0.032-0.001-0.067,0-0.1,0.008
			c-0.033,0.007-0.063,0.021-0.095,0.038c-0.058,0.034-0.104,0.086-0.134,0.148c-0.015,0.033-0.026,0.066-0.03,0.1L92.177,48.2
			c-0.006,0.04-0.015,0.082-0.024,0.122c-0.038,0.159-0.083,0.314-0.147,0.463c-0.061,0.148-0.137,0.29-0.227,0.423
			c-0.023,0.033-0.046,0.066-0.07,0.097l-0.037,0.051l-0.035,0.041l-0.042,0.05c-0.012,0.015-0.024,0.031-0.038,0.045
			c-0.027,0.03-0.056,0.063-0.083,0.089l-0.019,0.02l-0.022,0.021c-0.015,0.014-0.029,0.029-0.044,0.042
			c-0.029,0.028-0.059,0.056-0.088,0.083c-0.06,0.053-0.124,0.104-0.186,0.151c-0.065,0.048-0.131,0.097-0.197,0.14
			c-0.036,0.022-0.07,0.044-0.104,0.064l-0.05,0.032l-0.054,0.03c-0.141,0.082-0.286,0.156-0.433,0.222
			c-0.147,0.068-0.298,0.128-0.454,0.185c-0.038,0.014-0.076,0.028-0.115,0.042l-0.115,0.038c-0.077,0.026-0.153,0.048-0.233,0.071
			c-0.313,0.092-0.634,0.167-0.955,0.229c-0.644,0.123-1.3,0.193-1.958,0.239l-0.124,0.007l-0.124,0.004l-0.246,0.011l-0.497,0.02
			c-0.082,0.005-0.166,0.003-0.246,0.004l-0.249,0.001l-0.496,0.002c-0.66-0.002-1.32-0.03-1.984-0.066
			c-0.657-0.038-1.321-0.091-1.979-0.153c-0.659-0.062-1.319-0.133-1.979-0.213c-0.327-0.039-0.657-0.082-0.987-0.123l-0.492-0.068
			l-0.248-0.033l-0.244-0.036c-1.312-0.183-2.62-0.412-3.905-0.729c-0.643-0.16-1.279-0.338-1.906-0.553
			c-0.155-0.053-0.312-0.109-0.466-0.168c-0.154-0.057-0.307-0.119-0.46-0.182c-0.153-0.064-0.305-0.128-0.454-0.196
			c-0.151-0.069-0.299-0.142-0.445-0.217c-0.146-0.076-0.292-0.155-0.436-0.238c-0.141-0.083-0.281-0.169-0.419-0.26
			c-0.068-0.046-0.136-0.093-0.204-0.141c-0.068-0.047-0.135-0.096-0.198-0.147c-0.129-0.1-0.257-0.208-0.378-0.319
			c-0.031-0.028-0.06-0.056-0.09-0.084c-0.016-0.013-0.03-0.028-0.044-0.043l-0.044-0.044c-0.058-0.059-0.114-0.119-0.169-0.179
			c-0.053-0.06-0.106-0.125-0.156-0.19c-0.052-0.066-0.101-0.13-0.147-0.198c-0.093-0.136-0.175-0.279-0.248-0.425
			c-0.074-0.149-0.132-0.302-0.179-0.46c-0.022-0.079-0.042-0.159-0.057-0.239c-0.016-0.082-0.027-0.163-0.034-0.244
			c-0.005-0.08-0.008-0.164-0.002-0.241l0.002-0.029v-0.015c0-0.003,0.002-0.011,0.002-0.018c0.004-0.032,0.003-0.063-0.003-0.093
			c-0.013-0.06-0.042-0.117-0.082-0.16c-0.042-0.043-0.098-0.073-0.157-0.084c-0.058-0.011-0.118-0.005-0.174,0.018
			c-0.054,0.024-0.101,0.064-0.133,0.115c-0.008,0.012-0.015,0.026-0.022,0.04c-0.003,0.006-0.004,0.013-0.006,0.021
			c-0.003,0.006-0.006,0.014-0.008,0.019c-0.006,0.022-0.012,0.043-0.018,0.065c-0.046,0.176-0.062,0.354-0.067,0.53
			c-0.005,0.353,0.053,0.702,0.156,1.036c0.103,0.333,0.254,0.648,0.433,0.942c0.091,0.147,0.187,0.289,0.291,0.424
			c0.027,0.035,0.053,0.069,0.08,0.101c0.012,0.017,0.026,0.032,0.04,0.052c0.014,0.016,0.025,0.032,0.042,0.048l0.083,0.098
			l0.042,0.049l0.042,0.047c0.03,0.032,0.058,0.063,0.088,0.094c0.028,0.03,0.059,0.062,0.087,0.092
			c0.032,0.03,0.062,0.06,0.092,0.09l0.045,0.043l0.022,0.024l0.024,0.022c0.063,0.056,0.124,0.113,0.189,0.169
			c0.063,0.057,0.126,0.11,0.193,0.164c0.521,0.43,1.093,0.79,1.685,1.106c0.593,0.315,1.208,0.58,1.832,0.819
			c0.623,0.235,1.261,0.437,1.904,0.615c0.641,0.178,1.29,0.329,1.942,0.462c0.298,0.062,0.596,0.118,0.895,0.171
			c0.05,0.01,0.1,0.018,0.152,0.026c0.109,0.02,0.22,0.039,0.331,0.057c0.112,0.019,0.224,0.037,0.335,0.054l0.089,0.015
			c0.056,0.009,0.109,0.018,0.164,0.026c0.053,0.007,0.104,0.015,0.156,0.023c0.123,0.019,0.247,0.036,0.371,0.056l0.044,0.004
			l0.076,0.012c1.103,0.156,2.207,0.284,3.317,0.369c0.33,0.025,0.663,0.047,0.995,0.064c0.167,0.008,0.332,0.017,0.497,0.022
			l0.251,0.009c0.083,0.003,0.166,0.003,0.25,0.005l0.498,0.008l0.249,0.003c0.085,0.001,0.167,0,0.25,0l0.25-0.001l0.248-0.004
			c0.168-0.004,0.333-0.01,0.5-0.016c0.665-0.028,1.331-0.078,1.991-0.166c0.66-0.088,1.319-0.206,1.963-0.381
			c0.646-0.175,1.285-0.4,1.884-0.715c0.036-0.018,0.076-0.041,0.112-0.06c0.035-0.02,0.074-0.042,0.109-0.063l0.112-0.064
			c0.035-0.021,0.074-0.044,0.107-0.068c0.019-0.011,0.037-0.023,0.054-0.033l0.053-0.035l0.055-0.036
			c0.016-0.012,0.034-0.023,0.051-0.037l0.104-0.075l0.053-0.038c0.018-0.013,0.034-0.024,0.05-0.039
			c0.136-0.104,0.266-0.217,0.391-0.335c0.127-0.119,0.244-0.249,0.351-0.383c0.028-0.035,0.053-0.065,0.081-0.103
			c0.026-0.038,0.05-0.071,0.077-0.105l0.017-0.026l0.009-0.015l0.012-0.016l0.034-0.054c0.01-0.017,0.022-0.033,0.034-0.054
			l0.035-0.059c0.088-0.15,0.165-0.309,0.231-0.475C92.775,49.095,92.844,48.742,92.86,48.385 M76.995,52.344
			c-0.017-0.002-0.034-0.005-0.05-0.008C76.961,52.338,76.978,52.342,76.995,52.344"/>
	</g>
	<line fill="none" x1="143.651" y1="173.519" x2="164.373" y2="173.519"/>
</g>
<g>
</g>
<g>
</g>
<g>
</g>
<g>
</g>
<g>
</g>
<g>
</g>
</svg>
